<svg xmlns="http://www.w3.org/2000/svg" width="184" height="79" viewBox="0 0 184 79" fill="none">
<path d="M71.32 76.488C71.1493 76.488 70.936 76.488 70.68 76.488C70.424 76.488 70.168 76.4453 69.912 76.36H69.656C69.4 76.1893 69.3147 75.9333 69.4 75.592C69.4853 75.2507 69.3147 75.08 68.888 75.08C68.5467 75.08 68.3333 75.208 68.248 75.464C68.1627 75.8053 67.9493 75.976 67.608 75.976H67.096L66.968 75.848C66.6267 75.7627 66.328 75.5493 66.072 75.208C65.816 74.8667 65.56 74.7813 65.304 74.952C64.9627 75.208 64.5787 75.336 64.152 75.336C63.5547 75.336 63 75.1227 62.488 74.696C62.0613 74.2693 61.6347 73.8853 61.208 73.544C61.1227 73.4587 60.9947 73.4587 60.824 73.544C60.6533 73.7147 60.4827 73.7573 60.312 73.672C60.2267 73.672 60.1413 73.6293 60.056 73.544L59.16 73.16C59.0747 73.16 59.032 73.1173 59.032 73.032C59.032 73.032 58.9893 73.032 58.904 73.032C58.3067 72.776 57.6667 72.392 56.984 71.88C56.3867 71.368 55.704 71.0693 54.936 70.984C54.8507 70.984 54.808 70.9413 54.808 70.856C54.808 70.856 54.7653 70.856 54.68 70.856L52.248 69.448C52.248 69.448 52.2053 69.4053 52.12 69.32C52.12 69.32 52.0773 69.32 51.992 69.32C51.8213 68.7227 51.608 68.3813 51.352 68.296C51.1813 68.296 50.7547 68.2533 50.072 68.168L49.944 68.04L48.152 67.016C48.152 66.9307 48.1093 66.888 48.024 66.888C48.024 66.888 47.9813 66.8027 47.896 66.632C47.8107 66.5467 47.7253 66.4187 47.64 66.248C45.5067 65.48 43.672 64.2853 42.136 62.664C41.9653 62.4933 41.7093 62.3653 41.368 62.28C41.112 62.1947 40.8987 62.0667 40.728 61.896L40.6 61.768L38.04 59.848C37.3573 60.0187 36.504 60.1893 35.48 60.36C34.5413 60.4453 33.9013 60.4453 33.56 60.36H33.432C33.432 60.36 33.2187 60.36 32.792 60.36C32.6213 60.5307 32.536 60.616 32.536 60.616H31.768C31.512 60.616 31.2133 60.6587 30.872 60.744C30.5307 60.8293 30.232 60.872 29.976 60.872C29.8907 60.872 29.848 60.872 29.848 60.872C29.848 60.7867 29.8053 60.744 29.72 60.744C29.6347 60.744 29.5067 60.7867 29.336 60.872C29.2507 60.9573 29.1227 61 28.952 61C28.8667 61 28.7813 60.9573 28.696 60.872C28.696 60.7013 28.6107 60.616 28.44 60.616C28.3547 60.616 28.2693 60.7013 28.184 60.872C28.0987 60.9573 27.9707 60.9573 27.8 60.872H27.416C27.3307 60.872 27.2453 60.872 27.16 60.872C27.0747 60.7867 26.9893 60.7867 26.904 60.872C26.904 60.872 26.8613 60.9147 26.776 61C26.776 61 26.7333 61 26.648 61C26.648 61 26.5627 60.9147 26.392 60.744C26.2213 60.744 26.008 60.8293 25.752 61C25.5813 61.0853 25.4107 61.0853 25.24 61H24.984C24.984 60.8293 24.8987 60.744 24.728 60.744V60.872H23.576C22.9787 60.7867 22.424 60.616 21.912 60.36C21.4853 60.0187 21.0587 59.848 20.632 59.848C20.5467 59.848 20.4613 59.8907 20.376 59.976C20.376 59.976 20.3333 59.976 20.248 59.976C20.1627 59.976 20.0773 59.976 19.992 59.976C19.992 59.8907 19.9493 59.848 19.864 59.848C19.6933 59.848 19.608 59.8907 19.608 59.976C19.4373 59.8053 19.352 59.72 19.352 59.72L18.328 59.464C18.2427 59.2933 17.816 59.2507 17.048 59.336C16.28 59.336 15.8107 59.336 15.64 59.336C15.5547 59.1653 15 58.9947 13.976 58.824C13.0373 58.568 12.4827 58.3973 12.312 58.312C12.2267 58.312 12.056 58.2267 11.8 58.056C11.6293 57.8853 11.5013 57.8427 11.416 57.928C11.16 57.928 10.8187 57.7573 10.392 57.416C9.96533 56.9893 9.624 56.776 9.368 56.776C9.28267 56.6053 9.19733 56.4773 9.112 56.392C9.02667 56.2213 8.984 56.0933 8.984 56.008H8.728C7.192 54.8133 6.168 53.7893 5.656 52.936C5.144 52.0827 4.93067 51.4 5.016 50.888V50.504C5.016 50.0773 4.97333 49.5653 4.888 48.968C4.888 48.3707 4.888 47.9013 4.888 47.56C5.05867 47.3893 5.18667 47.048 5.272 46.536C5.44267 46.024 5.528 45.7253 5.528 45.64C5.528 45.4693 5.57067 45.384 5.656 45.384C5.74133 45.2987 5.784 45.2133 5.784 45.128C5.86933 44.9573 5.912 44.7867 5.912 44.616C5.912 44.4453 5.95467 44.3173 6.04 44.232C6.04 43.976 6.08267 43.7627 6.168 43.592C6.25333 43.4213 6.38133 43.2933 6.552 43.208C6.72267 43.1227 6.85067 43.0373 6.936 42.952C7.10667 42.7813 7.23467 42.568 7.32 42.312C7.49067 41.9707 7.61867 41.7147 7.704 41.544C7.87467 41.3733 8.13067 41.16 8.472 40.904C8.81333 40.648 9.02667 40.4347 9.112 40.264C9.28267 40.008 9.53867 39.7947 9.88 39.624C10.3067 39.4533 10.648 39.24 10.904 38.984C10.9893 38.8133 11.288 38.6853 11.8 38.6C12.312 38.5147 12.6107 38.4293 12.696 38.344C12.8667 38.1733 13.1653 38.088 13.592 38.088C14.0187 38.088 14.232 38.2587 14.232 38.6C14.232 38.9413 13.9333 39.2827 13.336 39.624C12.9947 40.0507 12.7813 40.3493 12.696 40.52C12.6107 40.6053 12.3547 40.8613 11.928 41.288C11.928 41.3733 11.8853 41.6293 11.8 42.056C11.7147 42.4827 11.672 42.7813 11.672 42.952C11.5013 43.0373 11.416 43.1227 11.416 43.208C11.416 43.2933 11.3733 43.4213 11.288 43.592C11.288 43.7627 11.16 43.976 10.904 44.232C10.8187 44.3173 10.7333 44.488 10.648 44.744C10.648 45 10.6053 45.2133 10.52 45.384C10.4347 45.384 10.3067 45.4693 10.136 45.64C9.88 46.0667 9.79467 46.6213 9.88 47.304C9.96533 47.9013 9.96533 48.5413 9.88 49.224C9.79467 49.224 9.79467 49.5227 9.88 50.12C10.0507 50.632 10.136 50.9307 10.136 51.016C10.136 51.1013 10.1787 51.2293 10.264 51.4C10.3493 51.4853 10.392 51.6133 10.392 51.784C10.3067 51.8693 10.264 51.9973 10.264 52.168C10.264 52.2533 10.3493 52.3813 10.52 52.552C11.2027 53.32 11.7147 53.8747 12.056 54.216C12.4827 54.472 12.7387 54.6427 12.824 54.728C13.848 55.496 14.616 56.0507 15.128 56.392C15.64 56.7333 16.1947 56.9893 16.792 57.16C17.3893 57.2453 18.2853 57.4587 19.48 57.8C20.1627 57.9707 20.8453 58.184 21.528 58.44C22.2107 58.6107 22.8933 58.696 23.576 58.696C23.6613 58.696 23.704 58.7387 23.704 58.824C23.704 58.9093 23.7467 58.952 23.832 58.952C24.1733 58.952 24.472 58.9947 24.728 59.08C25.0693 59.08 25.4107 59.08 25.752 59.08C25.8373 59.08 25.9227 59.08 26.008 59.08C26.0933 58.9947 26.1787 58.952 26.264 58.952C26.3493 58.952 26.5627 59.0373 26.904 59.208C27.5867 59.208 28.2693 59.208 28.952 59.208C29.6347 59.208 30.2747 59.1653 30.872 59.08C31.5547 58.9947 32.2373 58.9093 32.92 58.824C33.6027 58.6533 34.2427 58.5253 34.84 58.44C35.0107 58.44 35.224 58.44 35.48 58.44C35.736 58.3547 35.992 58.312 36.248 58.312L35.352 57.672C35.2667 57.672 35.224 57.672 35.224 57.672C35.224 57.5867 35.1813 57.544 35.096 57.544L33.304 56.008L33.048 55.752C32.9627 55.752 32.92 55.6667 32.92 55.496C32.92 55.1547 32.7493 54.984 32.408 54.984C32.152 54.984 31.896 54.984 31.64 54.984C31.384 54.984 31.256 54.7707 31.256 54.344C31.1707 54.344 31.128 54.344 31.128 54.344C31.128 54.2587 31.128 54.216 31.128 54.216C30.7867 53.5333 30.2747 52.9787 29.592 52.552C28.9947 52.1253 28.3973 51.6133 27.8 51.016L27.672 50.888C27.5867 50.7173 27.5013 50.632 27.416 50.632C27.3307 50.5467 27.2453 50.4613 27.16 50.376C27.16 50.2907 27.1173 50.248 27.032 50.248C27.032 50.248 27.032 50.2053 27.032 50.12C26.6907 49.7787 26.264 49.4373 25.752 49.096C25.3253 48.6693 25.24 48.1573 25.496 47.56C25.24 47.4747 24.9413 47.432 24.6 47.432C24.2587 47.432 24.0027 47.304 23.832 47.048C23.6613 46.7067 23.4907 46.408 23.32 46.152C23.1493 45.8107 22.8933 45.5547 22.552 45.384C22.4667 45.384 22.424 45.384 22.424 45.384C22.424 45.2987 22.3813 45.256 22.296 45.256L19.992 42.44L19.864 42.312C19.7787 42.1413 19.6507 42.0133 19.48 41.928C19.3947 41.8427 19.352 41.7573 19.352 41.672C19.2667 40.904 18.84 40.3067 18.072 39.88C17.3893 39.4533 16.9627 38.9413 16.792 38.344C16.7067 38.0027 16.5787 37.704 16.408 37.448C16.3227 37.1067 16.1093 36.808 15.768 36.552C15.768 36.4667 15.4693 36.1253 14.872 35.528C14.36 34.8453 14.104 34.504 14.104 34.504C13.6773 33.9067 13.464 33.1813 13.464 32.328C13.464 31.1333 13.7627 30.0667 14.36 29.128C14.9573 28.104 15.5547 27.8053 16.152 28.232C16.408 28.4027 16.664 28.872 16.92 29.64C17.176 30.408 17.6453 31.1333 18.328 31.816V31.944C18.584 32.5413 18.84 33.0107 19.096 33.352C19.352 33.6933 19.6933 34.2907 20.12 35.144C20.12 35.144 20.2053 35.4 20.376 35.912C20.632 36.3387 20.8027 36.552 20.888 36.552C21.0587 36.9787 21.1867 37.32 21.272 37.576C21.3573 37.832 21.6987 38.0027 22.296 38.088C22.3813 38.088 22.424 38.1307 22.424 38.216C22.424 38.216 22.4667 38.216 22.552 38.216C23.6613 40.008 25.1547 41.8853 27.032 43.848C27.032 43.9333 27.032 43.976 27.032 43.976C27.1173 43.976 27.16 44.0187 27.16 44.104C27.5013 44.2747 27.5867 44.5733 27.416 45C27.2453 45.3413 27.3307 45.5547 27.672 45.64C27.8427 45.7253 28.0133 45.6827 28.184 45.512C28.3547 45.3413 28.4827 45.3413 28.568 45.512C29.1653 46.1947 29.72 46.8347 30.232 47.432C30.744 48.0293 31.3413 48.584 32.024 49.096L32.152 49.224C33.432 50.4187 34.7547 51.6133 36.12 52.808L36.248 52.936C36.4187 53.192 36.5893 53.4053 36.76 53.576C36.9307 53.6613 37.0587 53.832 37.144 54.088C37.2293 54.4293 37.4427 54.6427 37.784 54.728C38.2107 54.728 38.552 54.856 38.808 55.112C38.8933 55.112 38.936 55.1547 38.936 55.24C39.2773 55.496 39.6187 55.752 39.96 56.008C40.3867 56.264 40.7707 56.5627 41.112 56.904L41.752 56.648C43.032 56.136 44.3973 55.624 45.848 55.112C47.384 54.6 48.9627 53.96 50.584 53.192C50.7547 53.1067 50.84 53.32 50.84 53.832C50.9253 54.2587 51.0533 54.4293 51.224 54.344C51.3947 54.2587 51.608 53.9173 51.864 53.32C52.12 52.7227 52.3333 52.3813 52.504 52.296C52.8453 51.8693 53.4427 51.4853 54.296 51.144C55.2347 50.8027 55.6187 50.7173 55.448 50.888C57.1547 49.9493 58.8187 48.9253 60.44 47.816C62.1467 46.7067 63.64 45.512 64.92 44.232L65.944 42.952C66.2853 42.6107 66.5413 42.6107 66.712 42.952C66.6267 43.1227 66.584 43.464 66.584 43.976C67.096 43.8907 67.3947 43.5067 67.48 42.824C67.5653 42.056 67.6507 41.3733 67.736 40.776C68.1627 40.264 68.5893 39.7947 69.016 39.368C69.4427 38.856 69.8267 38.3013 70.168 37.704C70.2533 37.6187 70.3813 37.576 70.552 37.576C70.808 37.576 71.064 37.6187 71.32 37.704C71.6613 37.7893 71.9173 37.6613 72.088 37.32C71.9173 36.8933 71.7467 36.5947 71.576 36.424C71.4907 36.168 71.5333 35.8267 71.704 35.4H71.832L72.216 34.76C72.6427 34.0773 73.112 33.5653 73.624 33.224C74.136 32.7973 74.4347 32.0293 74.52 30.92H74.648C76.3547 27.9333 77.208 24.7333 77.208 21.32C77.208 17.3947 75.9707 13.8533 73.496 10.696C71.0213 7.53867 67.1387 5.704 61.848 5.192C61.7627 5.10667 61.2507 4.97867 60.312 4.808C59.4587 4.552 58.9467 4.424 58.776 4.424C57.752 4.33866 57.1973 4.38133 57.112 4.552C57.0267 4.63733 56.5573 4.59466 55.704 4.424C54.8507 3.99733 54.0827 3.82666 53.4 3.912C52.8027 3.912 52.4187 3.86933 52.248 3.784L49.304 4.168C46.4027 4.08266 44.312 4.25333 43.032 4.68C41.752 5.10666 40.5573 5.40533 39.448 5.576L34.584 6.344C34.2427 6.25866 33.9867 6.25866 33.816 6.344C33.6453 6.344 33.4747 6.42933 33.304 6.6L30.36 7.496H30.232C30.0613 7.58133 29.7627 7.66666 29.336 7.752C28.9093 7.752 28.6107 7.88 28.44 8.136C27.8427 8.22133 27.2027 8.43466 26.52 8.776H26.392C26.0507 9.37333 25.496 9.58666 24.728 9.416L22.936 10.312C22.7653 10.3973 22.5093 10.312 22.168 10.056C21.912 9.71466 21.6987 9.45867 21.528 9.288C21.784 9.62933 21.912 9.97066 21.912 10.312C21.912 10.9093 21.5707 11.208 20.888 11.208C20.5467 11.3787 20.1627 11.592 19.736 11.848C19.3093 12.104 18.8827 12.3173 18.456 12.488C18.2 12.6587 17.688 12.744 16.92 12.744C16.664 12.744 16.3653 12.744 16.024 12.744C15.768 12.744 15.5547 12.8293 15.384 13V13.128C15.384 13.2133 15.4267 13.3413 15.512 13.512C15.5973 13.6827 15.64 13.8533 15.64 14.024C15.64 14.3653 15.384 14.664 14.872 14.92C14.4453 15.176 14.1467 15.3893 13.976 15.56H13.848C13.7627 15.6453 13.5067 15.6027 13.08 15.432C12.6533 15.176 12.3973 15.0907 12.312 15.176V15.304C12.312 15.4747 12.3973 15.688 12.568 15.944C12.7387 16.2 12.7813 16.3707 12.696 16.456H12.568C12.2267 16.712 11.8853 16.968 11.544 17.224C11.2027 17.48 10.904 17.7787 10.648 18.12C10.3067 18.376 9.96533 18.6747 9.624 19.016C9.368 19.272 9.02667 19.4853 8.6 19.656C8.51467 19.656 8.344 19.4853 8.088 19.144C7.832 18.8027 7.66133 18.7173 7.576 18.888C7.32 19.144 7.192 19.6133 7.192 20.296C7.27733 20.9787 7.23467 21.448 7.064 21.704C6.89333 22.0453 6.59467 22.2587 6.168 22.344C5.74133 22.344 5.44267 22.5147 5.272 22.856V22.984C5.272 23.3253 5.35733 23.7093 5.528 24.136C5.69867 24.5627 5.784 24.904 5.784 25.16C5.69867 25.5867 5.656 26.0133 5.656 26.44C5.656 26.7813 5.656 27.1653 5.656 27.592C5.656 27.848 5.656 28.0613 5.656 28.232C5.656 28.4027 5.74133 28.616 5.912 28.872C6.25333 29.896 6.936 30.8773 7.96 31.816C8.472 32.1573 8.728 32.5413 8.728 32.968C8.728 33.224 8.55733 33.352 8.216 33.352C7.704 33.352 7.14933 33.0107 6.552 32.328C6.46667 32.2427 6.168 32.0293 5.656 31.688C5.22933 31.3467 4.93067 31.0907 4.76 30.92C2.968 29.2133 1.85867 27.5067 1.432 25.8C1.00533 24.0933 0.877333 22.5573 1.048 21.192C1.13333 20.7653 1.304 20.4667 1.56 20.296C1.816 20.1253 2.02933 19.8693 2.2 19.528C2.37067 19.272 2.41333 19.0587 2.328 18.888C2.24267 18.7173 2.2 18.504 2.2 18.248C2.2 17.8213 2.49867 17.352 3.096 16.84C3.77867 16.2427 4.41867 15.688 5.016 15.176C5.69867 14.5787 6.04 14.1947 6.04 14.024C6.97867 13.1707 8.00267 12.4027 9.112 11.72C10.3067 10.952 11.544 10.2693 12.824 9.672H12.952C13.2933 9.33066 13.6347 9.16 13.976 9.16C14.3173 9.16 14.744 9.288 15.256 9.544C15.1707 9.37333 15.0427 9.24533 14.872 9.16C14.7013 8.98933 14.6587 8.86133 14.744 8.776C16.1947 8.09333 17.688 7.496 19.224 6.984C20.76 6.38666 22.296 5.87466 23.832 5.448C24.2587 5.448 24.6 5.32 24.856 5.064L25.496 4.936C26.0933 5.10666 26.52 4.97866 26.776 4.552C28.1413 4.12533 30.1893 3.656 32.92 3.144C35.6507 2.632 38.5947 2.248 41.752 1.992C45.2507 1.736 48.6213 1.608 51.864 1.608C55.8747 1.608 58.6907 1.736 60.312 1.992C61.7627 2.16266 63.7253 2.632 66.2 3.4C68.6747 4.168 71.192 5.40533 73.752 7.112C76.312 8.73333 78.4027 10.952 80.024 13.768C81.6453 16.4987 82.2427 19.9973 81.816 24.264C81.7307 25.8 81.3893 27.2933 80.792 28.744C80.1947 30.1093 79.5547 31.4747 78.872 32.84C78.616 33.2667 78.36 33.736 78.104 34.248C77.9333 34.76 77.72 35.2293 77.464 35.656C77.3787 35.7413 77.2507 35.8693 77.08 36.04C76.9093 36.1253 76.7813 36.2533 76.696 36.424L75.672 37.576C75.3307 38.088 74.9467 38.6 74.52 39.112C74.1787 39.624 73.7947 40.136 73.368 40.648L72.984 41.032C71.448 42.568 69.8693 44.1893 68.248 45.896C66.712 47.5173 65.048 48.9253 63.256 50.12V50.248C63 50.3333 62.744 50.4613 62.488 50.632C62.3173 50.7173 62.1467 50.8453 61.976 51.016L61.848 51.144C61.592 51.2293 61.336 51.3147 61.08 51.4C60.9093 51.4853 60.696 51.6987 60.44 52.04C60.0987 52.296 59.8 52.424 59.544 52.424C58.3493 53.0213 57.2827 53.5333 56.344 53.96C55.4053 54.3013 54.5947 54.6427 53.912 54.984C53.912 54.984 53.2293 55.2827 51.864 55.88C50.584 56.392 49.0907 56.9467 47.384 57.544C45.7627 58.056 44.3547 58.3973 43.16 58.568V58.696C43.16 59.2933 43.416 59.592 43.928 59.592C44.5253 59.592 44.9947 59.72 45.336 59.976L45.464 60.104C47.3413 61.384 49.2613 62.6213 51.224 63.816C53.272 65.0107 55.3627 66.2053 57.496 67.4C60.3973 68.936 63.0427 70.0453 65.432 70.728C67.9067 71.4107 70.0827 71.752 71.96 71.752C74.6907 71.752 76.7813 71.1973 78.232 70.088C79.6827 68.9787 80.408 67.656 80.408 66.12C80.408 65.352 80.28 64.6693 80.024 64.072L79.896 63.944C79.8107 63.432 79.6827 62.9627 79.512 62.536C79.3413 62.1093 79.0427 61.768 78.616 61.512C78.5307 61.4267 78.488 61.3413 78.488 61.256C78.232 60.9147 77.7627 60.6587 77.08 60.488C77.08 60.4027 77.0373 60.36 76.952 60.36C76.7813 60.1893 76.696 60.0613 76.696 59.976C76.6107 59.976 76.568 59.9333 76.568 59.848C76.2267 59.4213 75.928 59.08 75.672 58.824C75.5013 58.568 75.1173 58.4827 74.52 58.568L74.392 58.44C74.2213 58.2693 74.136 58.056 74.136 57.8C74.136 57.3733 74.264 57.0747 74.52 56.904C74.8613 56.648 75.2027 56.648 75.544 56.904C75.8853 57.0747 76.1413 57.2453 76.312 57.416C76.3973 57.416 76.4827 57.4587 76.568 57.544C76.9093 57.8853 77.208 58.2267 77.464 58.568C77.72 58.9093 78.1467 59.1227 78.744 59.208C78.744 59.208 78.744 59.2507 78.744 59.336C78.744 59.336 78.7867 59.336 78.872 59.336L79.384 59.848C79.64 60.5307 80.1093 61.128 80.792 61.64C80.8773 61.7253 80.92 61.8107 80.92 61.896C81.3467 62.3227 81.6453 62.792 81.816 63.304C82.072 63.816 82.2853 64.3707 82.456 64.968V65.608C82.456 66.12 82.584 66.632 82.84 67.144V67.4C82.84 69.5333 82.1147 71.4533 80.664 73.16C79.2133 74.952 76.952 76.0187 73.88 76.36H73.752C73.496 76.1893 73.24 76.0613 72.984 75.976C72.8133 75.8907 72.6427 75.848 72.472 75.848C72.3013 75.848 72.0027 76.0613 71.576 76.488H71.32ZM100.25 78.92C100.165 78.92 99.6527 78.8773 98.714 78.792C97.8607 78.792 97.434 78.7493 97.434 78.664C97.2633 78.3227 97.0927 78.152 96.922 78.152C96.8367 78.152 96.6233 78.1093 96.282 78.024C96.1967 77.9387 95.77 77.64 95.002 77.128C94.234 76.616 93.6793 76.1893 93.338 75.848C92.7407 76.1893 92.1007 76.488 91.418 76.744C90.7353 77.0853 90.0527 77.256 89.37 77.256C87.834 77.256 86.298 76.6587 84.762 75.464C83.3113 74.3547 82.586 73.1173 82.586 71.752C82.586 70.8133 82.7993 69.7893 83.226 68.68C83.5673 67.656 83.6953 67.0587 83.61 66.888C83.866 66.4613 84.122 65.9067 84.378 65.224C84.7193 64.5413 84.8473 63.9867 84.762 63.56C84.9327 63.2187 85.3167 62.3227 85.914 60.872C86.5113 59.336 87.1087 57.8853 87.706 56.52C88.3887 55.0693 88.8153 54.344 88.986 54.344L89.114 53.448C89.1993 53.0213 89.4127 52.8507 89.754 52.936C90.0953 52.936 90.266 53.1493 90.266 53.576C90.1807 54.7707 90.01 55.9227 89.754 57.032C89.498 58.1413 89.37 59.3787 89.37 60.744V61.128C89.37 62.2373 89.498 63.304 89.754 64.328C90.0953 65.352 90.1807 66.4187 90.01 67.528C90.01 67.6987 90.0527 67.8693 90.138 68.04C90.3087 68.296 90.4367 68.5093 90.522 68.68H90.65C91.0767 70.0453 91.5887 71.2827 92.186 72.392C92.8687 71.9653 93.5087 71.496 94.106 70.984C94.7033 70.472 95.258 69.96 95.77 69.448C96.4527 69.3627 96.8793 69.1493 97.05 68.808C97.306 68.4667 97.5193 68.04 97.69 67.528C98.6287 66.6747 99.482 65.736 100.25 64.712C101.103 63.688 101.957 62.7493 102.81 61.896L102.938 61.768C103.279 61.1707 103.706 61 104.218 61.256C104.389 60.5733 104.687 59.848 105.114 59.08C105.626 58.312 106.181 57.5867 106.778 56.904C107.375 56.136 107.93 55.368 108.442 54.6L113.562 46.408C113.989 45.7253 114.373 45.0853 114.714 44.488C115.055 43.8053 115.439 43.1653 115.866 42.568C116.037 42.312 116.25 42.0987 116.506 41.928C116.847 41.7573 117.061 41.6293 117.146 41.544V41.16C117.146 40.648 117.231 40.264 117.402 40.008H117.53C117.871 39.4107 118.213 38.728 118.554 37.96C118.981 37.192 119.407 36.552 119.834 36.04C120.005 35.8693 120.218 35.7413 120.474 35.656C120.73 35.4853 120.901 35.272 120.986 35.016C120.986 34.9307 120.943 34.7173 120.858 34.376C120.773 34.0347 120.901 33.7787 121.242 33.608L121.37 33.352V33.224C122.223 33.1387 122.565 32.9253 122.394 32.584C122.309 32.2427 122.309 31.816 122.394 31.304L122.778 30.792V30.664C123.375 30.408 123.717 30.024 123.802 29.512C123.973 28.9147 124.101 28.36 124.186 27.848C124.357 27.7627 124.655 27.208 125.082 26.184C125.594 25.16 126.063 24.0933 126.49 22.984C127.002 21.7893 127.343 21.064 127.514 20.808C127.941 20.6373 128.154 20.3813 128.154 20.04C128.154 19.6133 128.197 19.2293 128.282 18.888C128.453 18.4613 128.495 17.992 128.41 17.48C128.41 16.968 128.453 16.456 128.538 15.944C128.709 15.432 128.837 14.8773 128.922 14.28C129.093 13.6827 129.178 13.0853 129.178 12.488V12.36C129.093 12.1893 129.05 11.9333 129.05 11.592C129.05 11.2507 129.135 10.952 129.306 10.696C129.477 10.44 129.647 10.1413 129.818 9.8V9.672C129.989 9.50133 130.202 9.16 130.458 8.648C130.799 8.136 131.141 7.92266 131.482 8.008C131.823 7.83733 132.079 7.752 132.25 7.752C132.677 7.752 133.103 7.96533 133.53 8.392H133.658L134.17 8.52C134.426 8.17866 134.597 7.53866 134.682 6.6C134.853 5.576 134.938 4.808 134.938 4.296V4.168C135.194 3.656 135.365 3.22933 135.45 2.888C135.621 2.46133 135.621 1.94933 135.45 1.352C135.621 1.18133 135.791 1.01066 135.962 0.839996C136.133 0.583997 136.346 0.370664 136.602 0.199997C136.858 0.285329 136.986 0.626663 136.986 1.224C136.986 1.56533 136.943 1.94933 136.858 2.376C136.858 2.71733 136.858 2.97333 136.858 3.144C136.773 3.31466 136.73 3.61333 136.73 4.04C136.303 4.21066 136.09 4.46666 136.09 4.808C136.09 5.064 136.133 5.36266 136.218 5.704C136.389 5.96 136.474 6.216 136.474 6.472C136.389 7.66666 136.303 8.94666 136.218 10.312C136.218 11.6773 136.218 13.0853 136.218 14.536C136.218 18.376 136.346 22.472 136.602 26.824C136.943 31.176 137.413 35.4 138.01 39.496C138.607 43.592 139.333 47.2613 140.186 50.504H140.314V50.888C140.314 51.2293 140.399 51.5707 140.57 51.912C140.741 52.2533 140.911 52.5947 141.082 52.936V53.064L141.85 54.984C141.85 55.5813 142.021 56.136 142.362 56.648C142.789 57.16 143.173 57.6293 143.514 58.056C143.599 58.568 143.642 58.952 143.642 59.208C143.727 59.3787 144.069 59.5067 144.666 59.592L145.178 60.104H145.306C145.647 61.2133 146.202 61.5973 146.97 61.256L147.098 61.384C147.183 61.2987 147.354 61.256 147.61 61.256C148.037 61.256 148.378 61.4693 148.634 61.896C148.89 62.3227 149.189 62.6213 149.53 62.792L149.658 62.92C149.829 62.92 149.957 62.7067 150.042 62.28C150.213 61.8533 150.383 61.5973 150.554 61.512C150.895 61.5973 151.45 61.384 152.218 60.872C153.071 60.2747 153.882 59.6347 154.65 58.952C155.418 58.184 155.845 57.672 155.93 57.416L156.058 57.288C156.485 56.8613 156.698 56.52 156.698 56.264C156.698 55.9227 156.954 55.5387 157.466 55.112L158.874 52.808V52.68C159.642 52.3387 160.026 51.6133 160.026 50.504C160.197 50.248 160.367 49.992 160.538 49.736C160.709 49.3947 160.837 49.0533 160.922 48.712V48.584C161.263 48.2427 161.562 47.9867 161.818 47.816C162.159 47.6453 162.159 47.2613 161.818 46.664L163.098 43.592V43.464L163.994 41.8C164.421 40.776 164.762 39.7093 165.018 38.6C165.359 37.4907 165.701 36.424 166.042 35.4C166.127 35.144 166.298 34.5467 166.554 33.608C166.81 32.584 167.066 31.56 167.322 30.536C167.663 29.512 167.834 28.872 167.834 28.616C167.919 28.1893 168.047 27.8053 168.218 27.464C168.474 27.1227 168.645 26.7813 168.73 26.44C168.901 24.8187 169.199 23.24 169.626 21.704C170.053 20.168 170.479 18.632 170.906 17.096C170.821 16.9253 170.735 16.7547 170.65 16.584C170.65 16.4133 170.65 16.2427 170.65 16.072L170.778 15.944L171.034 14.28C171.119 13.768 171.29 13.256 171.546 12.744C171.887 12.1467 171.845 11.592 171.418 11.08C171.333 10.3973 171.205 9.33066 171.034 7.88C170.863 6.42933 170.565 5.53333 170.138 5.192C170.053 4.85066 169.882 4.38133 169.626 3.784C169.37 3.18666 169.242 2.76 169.242 2.504C169.242 2.248 169.37 2.03467 169.626 1.864C169.967 1.69333 170.266 1.608 170.522 1.608C171.205 1.608 171.717 1.82133 172.058 2.248C172.485 2.67466 172.911 3.10133 173.338 3.528L173.466 3.656C173.551 4.25333 173.935 4.808 174.618 5.32V5.448C174.959 5.87466 175.173 6.344 175.258 6.856H175.386C175.471 7.02666 175.429 7.19733 175.258 7.368C175.173 7.53866 175.13 7.70933 175.13 7.88C175.301 8.136 175.514 8.30666 175.77 8.392C176.026 8.392 176.239 8.43466 176.41 8.52C176.837 8.94666 177.05 9.544 177.05 10.312C177.05 11.08 177.349 11.592 177.946 11.848C178.373 12.2747 178.757 12.7013 179.098 13.128C179.525 13.4693 180.037 13.768 180.634 14.024C180.805 13.9387 181.018 13.9387 181.274 14.024C181.53 14.1093 181.786 14.1093 182.042 14.024V13.896H182.17C182.341 13.7253 182.469 13.64 182.554 13.64C182.981 13.64 183.194 13.9387 183.194 14.536C183.194 14.9627 182.981 15.304 182.554 15.56L182.17 15.816C182.085 15.7307 181.957 15.688 181.786 15.688C181.53 15.688 181.231 15.7733 180.89 15.944C180.634 16.1147 180.335 16.2 179.994 16.2C179.653 15.944 179.354 15.7307 179.098 15.56C178.927 15.3893 178.629 15.304 178.202 15.304L177.946 15.176L175.13 12.872C175.045 12.7867 174.959 12.744 174.874 12.744C174.703 12.744 174.618 12.9147 174.618 13.256C174.618 13.512 174.618 13.7253 174.618 13.896C174.703 14.2373 174.746 14.536 174.746 14.792C174.746 15.048 174.746 15.3467 174.746 15.688C174.746 16.456 174.703 17.224 174.618 17.992C174.533 18.76 174.447 19.4853 174.362 20.168C174.021 20.5093 173.765 20.8507 173.594 21.192C173.509 21.448 173.637 21.7893 173.978 22.216C173.978 22.472 173.807 23.2827 173.466 24.648C173.21 26.0133 172.997 26.9093 172.826 27.336C172.229 29.384 171.717 31.2613 171.29 32.968C170.863 34.6747 170.181 36.5093 169.242 38.472C169.157 38.728 169.114 39.0267 169.114 39.368C169.114 39.7093 169.029 40.008 168.858 40.264V40.392C168.346 41.7573 167.834 43.1227 167.322 44.488C166.81 45.8533 166.213 47.1333 165.53 48.328L163.866 51.272C163.525 51.8693 163.183 52.3813 162.842 52.808C162.501 53.2347 162.159 53.7467 161.818 54.344C161.391 55.1973 160.965 56.0507 160.538 56.904C160.111 57.672 159.557 58.3973 158.874 59.08V59.208C158.703 59.1227 158.533 59.08 158.362 59.08C157.935 59.08 157.637 59.2933 157.466 59.72C157.295 60.0613 157.125 60.3173 156.954 60.488C156.869 60.5733 156.741 60.616 156.57 60.616C155.973 60.616 155.674 60.744 155.674 61C155.674 61.3413 155.589 61.64 155.418 61.896H155.29C154.437 62.4933 153.498 62.9627 152.474 63.304C151.45 63.6453 150.426 63.816 149.402 63.816C148.207 63.816 147.226 63.6453 146.458 63.304H146.202C145.861 62.3653 145.263 62.1093 144.41 62.536L144.282 62.408C143.855 61.9813 143.386 61.5973 142.874 61.256C142.362 61 141.893 60.6587 141.466 60.232C140.101 58.7813 138.821 56.8613 137.626 54.472C136.431 51.9973 135.621 49.8213 135.194 47.944V47.688C135.194 47.6027 135.194 47.56 135.194 47.56C135.279 47.4747 135.322 47.3893 135.322 47.304C135.322 47.048 135.237 46.792 135.066 46.536C134.981 46.28 134.853 46.0667 134.682 45.896C134.682 45.7253 134.554 45.2133 134.298 44.36C134.127 43.4213 133.957 42.4827 133.786 41.544C133.615 40.52 133.53 39.7947 133.53 39.368C133.53 38.7707 133.573 38.3013 133.658 37.96C133.829 37.6187 133.701 37.2773 133.274 36.936V36.552C133.274 35.8693 133.189 35.2293 133.018 34.632C132.933 33.9493 132.89 33.3093 132.89 32.712V32.584C132.89 31.7307 132.847 30.9627 132.762 30.28C132.762 29.512 132.719 28.744 132.634 27.976C132.549 27.2933 132.506 26.568 132.506 25.8C132.591 25.032 132.634 24.264 132.634 23.496V21.704C132.634 20.5947 132.549 20.04 132.378 20.04C132.122 20.04 131.653 20.68 130.97 21.96C130.799 22.3013 130.373 23.112 129.69 24.392C129.093 25.5867 128.41 26.9093 127.642 28.36C126.959 29.7253 126.319 30.92 125.722 31.944C125.21 32.968 124.911 33.5227 124.826 33.608C124.741 34.2053 124.442 34.76 123.93 35.272V35.4L121.626 39.368V39.496C121.455 39.6667 121.285 39.88 121.114 40.136C121.029 40.392 120.901 40.648 120.73 40.904V41.032L119.194 43.464V43.592C118.767 43.7627 118.426 43.9333 118.17 44.104C117.914 44.2747 117.914 44.6587 118.17 45.256V45.384L117.018 47.176V47.304C116.421 47.6453 115.994 48.1147 115.738 48.712C115.567 49.224 115.354 49.7787 115.098 50.376H114.97C114.543 51.144 114.074 51.9547 113.562 52.808C113.135 53.6613 112.623 54.4293 112.026 55.112C111.599 55.7093 110.831 56.7333 109.722 58.184C108.613 59.5493 107.973 60.5733 107.802 61.256H107.674C107.589 61.5973 107.375 61.896 107.034 62.152C106.778 62.4933 106.565 62.792 106.394 63.048C104.858 65.096 103.023 67.272 100.89 69.576C98.7567 71.9653 96.5807 73.8427 94.362 75.208C95.13 75.976 96.026 76.616 97.05 77.128C97.4767 77.128 97.69 77.2133 97.69 77.384C97.69 77.5547 97.7753 77.7253 97.946 77.896H98.202C98.458 77.896 98.7993 77.8533 99.226 77.768C99.738 77.768 100.079 77.768 100.25 77.768C100.677 77.768 100.89 77.9387 100.89 78.28C100.89 78.7067 100.677 78.92 100.25 78.92ZM87.834 74.312C88.2607 74.312 88.73 74.184 89.242 73.928C89.8393 73.672 90.522 73.3733 91.29 73.032C91.2047 72.8613 91.162 72.7333 91.162 72.648C91.162 72.5627 91.0767 72.4773 90.906 72.392C90.8207 72.136 90.6927 71.88 90.522 71.624C90.4367 71.368 90.3087 71.112 90.138 70.856V70.728C89.9673 70.3013 89.7967 69.832 89.626 69.32C89.5407 68.808 89.4127 68.3387 89.242 67.912H89.114C88.7727 67.2293 88.5167 65.9493 88.346 64.072C88.2607 62.28 88.218 60.9573 88.218 60.104C88.1327 60.5307 87.9193 61.3413 87.578 62.536C87.322 63.7307 87.066 64.8827 86.81 65.992C86.6393 67.1867 86.554 67.9547 86.554 68.296C86.042 68.6373 85.786 68.936 85.786 69.192C85.786 69.3627 85.8287 69.5333 85.914 69.704C86.0847 69.8747 86.2127 70.088 86.298 70.344C86.298 72.9893 86.81 74.312 87.834 74.312Z" fill="#3AC2DA"/>
</svg>