<svg width="110" height="110" viewBox="0 0 110 110" fill="none" xmlns="http://www.w3.org/2000/svg">
<path d="M99.043 107.212H10.6332C9.69655 107.212 8.93555 106.451 8.93555 105.514V49.6945C8.93555 49.0453 9.30809 48.4493 9.88816 48.1672C10.4682 47.8798 11.1654 47.9543 11.6816 48.3535L54.8408 82.0613L97.9999 48.3535C98.5161 47.9543 99.208 47.8798 99.7934 48.1672C100.379 48.4546 100.746 49.0453 100.746 49.6945V105.509C100.746 106.451 99.985 107.212 99.043 107.212ZM12.3308 103.811H97.3401V53.1803L55.8785 85.563C55.2612 86.0419 54.3991 86.0419 53.7871 85.563L12.3255 53.1803V103.811H12.3308Z" fill="#090909"/>
<path d="M99.0434 107.212H10.6336C9.9098 107.212 9.26054 106.749 9.02638 106.068C8.79222 105.381 9.01576 104.62 9.58519 104.173L45.3206 76.266C45.9379 75.787 46.8 75.787 47.412 76.266L54.8358 82.0666L62.2596 76.266C62.8769 75.787 63.7391 75.787 64.3511 76.266L100.086 104.173C100.656 104.62 100.885 105.381 100.645 106.068C100.416 106.749 99.7671 107.212 99.0434 107.212ZM15.5721 103.811H94.1048L63.308 79.7623L55.8842 85.563C55.2669 86.042 54.4048 86.042 53.7928 85.563L46.369 79.7623L15.5721 103.811Z" fill="#090909"/>
<path d="M10.6331 51.3922C10.1276 51.3922 9.62732 51.1686 9.29205 50.7376C8.71198 49.9979 8.84505 48.9282 9.58477 48.3534L46.6931 19.3713C47.4329 18.7966 48.5025 18.9243 49.0773 19.664C49.6573 20.4038 49.5243 21.4734 48.7846 22.0482L11.6762 51.0303C11.3675 51.2751 11.0003 51.3922 10.6331 51.3922Z" fill="#090909"/>
<path d="M51.0259 58.2094C50.5043 58.2094 49.9934 57.9699 49.6635 57.5282L37.6417 41.4992C37.184 40.8872 37.1894 40.0517 37.6524 39.445L60.9828 8.96746C61.3021 8.54705 61.8023 8.30225 62.3345 8.30225C62.8773 8.30757 63.3776 8.55769 63.6969 8.98343L88.1768 41.6216C88.4961 42.0473 88.5972 42.5954 88.4535 43.1063C88.3045 43.6172 87.9267 44.0323 87.4318 44.2239L51.6432 58.0976C51.4409 58.1721 51.2334 58.2094 51.0259 58.2094ZM41.1381 40.488L51.6166 54.4576L84.111 41.861L62.3239 12.8151L41.1381 40.488Z" fill="#090909"/>
<path d="M90.1552 46.2569C89.8945 46.2569 89.6337 46.2409 89.3676 46.1983C87.9148 45.9908 86.6376 45.2351 85.7595 44.059L60.6676 10.6066C59.7895 9.43583 59.4169 7.99365 59.6245 6.54081C59.832 5.0933 60.5877 3.81077 61.7638 2.93268C62.9346 2.0546 64.3768 1.68208 65.8296 1.88963C67.2771 2.09717 68.5597 2.85818 69.4377 4.02896L94.5297 37.4813C96.3391 39.8974 95.8495 43.3406 93.4334 45.1553C92.4755 45.879 91.3366 46.2569 90.1552 46.2569ZM65.0527 5.24231C64.6056 5.24231 64.1692 5.386 63.8074 5.65741C63.3603 5.99268 63.073 6.47695 62.9985 7.03041C62.9186 7.57855 63.057 8.12669 63.3923 8.57371L88.4842 42.0261C88.8195 42.4731 89.3037 42.7605 89.8572 42.835C90.4107 42.9095 90.9535 42.7711 91.4005 42.4412C92.3159 41.7547 92.5021 40.4455 91.8156 39.5249L66.7184 6.07782C66.3831 5.63612 65.8988 5.34343 65.3507 5.26892C65.2496 5.25296 65.1484 5.24231 65.0527 5.24231Z" fill="#090909"/>
<path d="M42.6061 62.5468C42.5262 62.5468 42.4464 62.5414 42.3666 62.5308C41.9196 62.4669 41.5204 62.2275 41.249 61.8656L31.1271 48.3697C30.563 47.6193 30.7173 46.555 31.4677 45.9909L38.9394 40.3871C39.3013 40.1157 39.7589 39.9986 40.2006 40.0625C40.6477 40.1263 41.0468 40.3658 41.3182 40.7277L51.4401 54.2236C52.0042 54.9739 51.8499 56.0383 51.0995 56.6024L43.6278 62.2062C43.3298 62.4244 42.9733 62.5468 42.6061 62.5468ZM34.863 47.6885L42.9467 58.465L47.699 54.8994L39.6153 44.1229L34.863 47.6885Z" fill="#090909"/>
<path d="M35.4327 64.0419C34.0917 64.0419 32.7665 63.4352 31.9044 62.2857L28.11 57.2248C26.6519 55.2823 27.0457 52.5151 28.9881 51.0569L33.006 48.0448C33.3679 47.7734 33.8202 47.6563 34.2673 47.7202C34.7143 47.784 35.1134 48.0235 35.3848 48.3854L42.4254 57.7729C42.6969 58.1348 42.814 58.5871 42.7501 59.0342C42.6862 59.4812 42.4468 59.8803 42.0849 60.1517L38.067 63.1638C37.2793 63.7545 36.3534 64.0419 35.4327 64.0419ZM33.6872 51.7807L31.0316 53.7763C30.5899 54.1062 30.4995 54.7395 30.8294 55.1812L34.6238 60.2422C34.9538 60.6839 35.587 60.7744 36.0341 60.4444L38.6896 58.4541L33.6872 51.7807Z" fill="#090909"/>
<path d="M64.3929 76.7929C63.717 76.7929 63.0358 76.6865 62.3759 76.463C60.7634 75.9255 59.4543 74.792 58.6933 73.27L50.4872 56.8844C50.2743 56.4586 50.2477 55.9584 50.4233 55.5114C50.5936 55.0643 50.9502 54.7131 51.3919 54.5375L60.1408 51.1476C60.9604 50.8336 61.881 51.1848 62.2748 51.9724L70.0818 67.5704C71.6517 70.7102 70.3745 74.5472 67.2347 76.1171C66.3406 76.5694 65.3721 76.7929 64.3929 76.7929ZM54.3667 57.0387L61.7373 71.7533C62.0939 72.4611 62.7006 72.9932 63.4562 73.2434C64.2066 73.4935 65.0102 73.4349 65.7233 73.0837C66.4311 72.7271 66.9633 72.1205 67.2134 71.3648C67.4635 70.6144 67.405 69.8055 67.0537 69.0977L59.9386 54.8834L54.3667 57.0387Z" fill="#090909"/>
<path d="M85.6899 30.2277C85.1737 30.2277 84.6628 29.9936 84.3276 29.5466L74.2003 16.0507C73.6362 15.3003 73.7906 14.2359 74.5409 13.6718C76.3929 12.2829 78.777 11.8784 81.257 12.5277C83.5932 13.1397 85.7485 14.6404 87.329 16.7478C88.9096 18.8552 89.7451 21.3458 89.6812 23.7565C89.612 26.3163 88.5584 28.4928 86.7064 29.8818C86.4031 30.1213 86.0412 30.2277 85.6899 30.2277ZM78.1916 15.6994L85.7804 25.8213C86.0891 25.204 86.2647 24.4749 86.286 23.6767C86.3286 22.027 85.7325 20.2921 84.6096 18.7967C83.4868 17.3013 81.9914 16.2422 80.3948 15.8218C79.6179 15.6143 78.8675 15.577 78.1916 15.6994Z" fill="#090909"/>
<path d="M64.1326 61.1843C63.3397 61.1843 62.6266 60.6256 62.4669 59.8167C62.286 58.896 62.882 58.002 63.8027 57.8157C66.3837 57.3048 68.1026 56.2777 68.9115 54.7717C70.1355 52.4833 69.0073 49.6149 68.9914 49.5883C68.6295 48.7209 69.0393 47.7257 69.9067 47.3638C70.7741 47.002 71.7693 47.417 72.1312 48.2792C72.2057 48.4548 73.9033 52.6377 71.9077 56.3682C70.5985 58.8162 68.092 60.4287 64.4626 61.1471C64.3508 61.1737 64.2444 61.1843 64.1326 61.1843Z" fill="#090909"/>
</svg>
