<svg width="581" height="162" viewBox="0 0 581 162" fill="none" xmlns="http://www.w3.org/2000/svg">
<path d="M92.32 118.488C92.1493 118.488 91.936 118.488 91.68 118.488C91.424 118.488 91.168 118.445 90.912 118.36H90.656C90.4 118.189 90.3147 117.933 90.4 117.592C90.4853 117.251 90.3147 117.08 89.888 117.08C89.5467 117.08 89.3333 117.208 89.248 117.464C89.1627 117.805 88.9493 117.976 88.608 117.976H88.096L87.968 117.848C87.6267 117.763 87.328 117.549 87.072 117.208C86.816 116.867 86.56 116.781 86.304 116.952C85.9627 117.208 85.5787 117.336 85.152 117.336C84.5547 117.336 84 117.123 83.488 116.696C83.0613 116.269 82.6347 115.885 82.208 115.544C82.1227 115.459 81.9947 115.459 81.824 115.544C81.6533 115.715 81.4827 115.757 81.312 115.672C81.2267 115.672 81.1413 115.629 81.056 115.544L80.16 115.16C80.0747 115.16 80.032 115.117 80.032 115.032C80.032 115.032 79.9893 115.032 79.904 115.032C79.3067 114.776 78.6667 114.392 77.984 113.88C77.3867 113.368 76.704 113.069 75.936 112.984C75.8507 112.984 75.808 112.941 75.808 112.856C75.808 112.856 75.7653 112.856 75.68 112.856L73.248 111.448C73.248 111.448 73.2053 111.405 73.12 111.32C73.12 111.32 73.0773 111.32 72.992 111.32C72.8213 110.723 72.608 110.381 72.352 110.296C72.1813 110.296 71.7547 110.253 71.072 110.168L70.944 110.04L69.152 109.016C69.152 108.931 69.1093 108.888 69.024 108.888C69.024 108.888 68.9813 108.803 68.896 108.632C68.8107 108.547 68.7253 108.419 68.64 108.248C66.5067 107.48 64.672 106.285 63.136 104.664C62.9653 104.493 62.7093 104.365 62.368 104.28C62.112 104.195 61.8987 104.067 61.728 103.896L61.6 103.768L59.04 101.848C58.3573 102.019 57.504 102.189 56.48 102.36C55.5413 102.445 54.9013 102.445 54.56 102.36H54.432C54.432 102.36 54.2187 102.36 53.792 102.36C53.6213 102.531 53.536 102.616 53.536 102.616H52.768C52.512 102.616 52.2133 102.659 51.872 102.744C51.5307 102.829 51.232 102.872 50.976 102.872C50.8907 102.872 50.848 102.872 50.848 102.872C50.848 102.787 50.8053 102.744 50.72 102.744C50.6347 102.744 50.5067 102.787 50.336 102.872C50.2507 102.957 50.1227 103 49.952 103C49.8667 103 49.7813 102.957 49.696 102.872C49.696 102.701 49.6107 102.616 49.44 102.616C49.3547 102.616 49.2693 102.701 49.184 102.872C49.0987 102.957 48.9707 102.957 48.8 102.872H48.416C48.3307 102.872 48.2453 102.872 48.16 102.872C48.0747 102.787 47.9893 102.787 47.904 102.872C47.904 102.872 47.8613 102.915 47.776 103C47.776 103 47.7333 103 47.648 103C47.648 103 47.5627 102.915 47.392 102.744C47.2213 102.744 47.008 102.829 46.752 103C46.5813 103.085 46.4107 103.085 46.24 103H45.984C45.984 102.829 45.8987 102.744 45.728 102.744V102.872H44.576C43.9787 102.787 43.424 102.616 42.912 102.36C42.4853 102.019 42.0587 101.848 41.632 101.848C41.5467 101.848 41.4613 101.891 41.376 101.976C41.376 101.976 41.3333 101.976 41.248 101.976C41.1627 101.976 41.0773 101.976 40.992 101.976C40.992 101.891 40.9493 101.848 40.864 101.848C40.6933 101.848 40.608 101.891 40.608 101.976C40.4373 101.805 40.352 101.72 40.352 101.72L39.328 101.464C39.2427 101.293 38.816 101.251 38.048 101.336C37.28 101.336 36.8107 101.336 36.64 101.336C36.5547 101.165 36 100.995 34.976 100.824C34.0373 100.568 33.4827 100.397 33.312 100.312C33.2267 100.312 33.056 100.227 32.8 100.056C32.6293 99.8853 32.5013 99.8427 32.416 99.928C32.16 99.928 31.8187 99.7573 31.392 99.416C30.9653 98.9893 30.624 98.776 30.368 98.776C30.2827 98.6053 30.1973 98.4773 30.112 98.392C30.0267 98.2213 29.984 98.0933 29.984 98.008H29.728C28.192 96.8133 27.168 95.7893 26.656 94.936C26.144 94.0827 25.9307 93.4 26.016 92.888V92.504C26.016 92.0773 25.9733 91.5653 25.888 90.968C25.888 90.3707 25.888 89.9013 25.888 89.56C26.0587 89.3893 26.1867 89.048 26.272 88.536C26.4427 88.024 26.528 87.7253 26.528 87.64C26.528 87.4693 26.5707 87.384 26.656 87.384C26.7413 87.2987 26.784 87.2133 26.784 87.128C26.8693 86.9573 26.912 86.7867 26.912 86.616C26.912 86.4453 26.9547 86.3173 27.04 86.232C27.04 85.976 27.0827 85.7627 27.168 85.592C27.2533 85.4213 27.3813 85.2933 27.552 85.208C27.7227 85.1227 27.8507 85.0373 27.936 84.952C28.1067 84.7813 28.2347 84.568 28.32 84.312C28.4907 83.9707 28.6187 83.7147 28.704 83.544C28.8747 83.3733 29.1307 83.16 29.472 82.904C29.8133 82.648 30.0267 82.4347 30.112 82.264C30.2827 82.008 30.5387 81.7947 30.88 81.624C31.3067 81.4533 31.648 81.24 31.904 80.984C31.9893 80.8133 32.288 80.6853 32.8 80.6C33.312 80.5147 33.6107 80.4293 33.696 80.344C33.8667 80.1733 34.1653 80.088 34.592 80.088C35.0187 80.088 35.232 80.2587 35.232 80.6C35.232 80.9413 34.9333 81.2827 34.336 81.624C33.9947 82.0507 33.7813 82.3493 33.696 82.52C33.6107 82.6053 33.3547 82.8613 32.928 83.288C32.928 83.3733 32.8853 83.6293 32.8 84.056C32.7147 84.4827 32.672 84.7813 32.672 84.952C32.5013 85.0373 32.416 85.1227 32.416 85.208C32.416 85.2933 32.3733 85.4213 32.288 85.592C32.288 85.7627 32.16 85.976 31.904 86.232C31.8187 86.3173 31.7333 86.488 31.648 86.744C31.648 87 31.6053 87.2133 31.52 87.384C31.4347 87.384 31.3067 87.4693 31.136 87.64C30.88 88.0667 30.7947 88.6213 30.88 89.304C30.9653 89.9013 30.9653 90.5413 30.88 91.224C30.7947 91.224 30.7947 91.5227 30.88 92.12C31.0507 92.632 31.136 92.9307 31.136 93.016C31.136 93.1013 31.1787 93.2293 31.264 93.4C31.3493 93.4853 31.392 93.6133 31.392 93.784C31.3067 93.8693 31.264 93.9973 31.264 94.168C31.264 94.2533 31.3493 94.3813 31.52 94.552C32.2027 95.32 32.7147 95.8747 33.056 96.216C33.4827 96.472 33.7387 96.6427 33.824 96.728C34.848 97.496 35.616 98.0507 36.128 98.392C36.64 98.7333 37.1947 98.9893 37.792 99.16C38.3893 99.2453 39.2853 99.4587 40.48 99.8C41.1627 99.9707 41.8453 100.184 42.528 100.44C43.2107 100.611 43.8933 100.696 44.576 100.696C44.6613 100.696 44.704 100.739 44.704 100.824C44.704 100.909 44.7467 100.952 44.832 100.952C45.1733 100.952 45.472 100.995 45.728 101.08C46.0693 101.08 46.4107 101.08 46.752 101.08C46.8373 101.08 46.9227 101.08 47.008 101.08C47.0933 100.995 47.1787 100.952 47.264 100.952C47.3493 100.952 47.5627 101.037 47.904 101.208C48.5867 101.208 49.2693 101.208 49.952 101.208C50.6347 101.208 51.2747 101.165 51.872 101.08C52.5547 100.995 53.2373 100.909 53.92 100.824C54.6027 100.653 55.2427 100.525 55.84 100.44C56.0107 100.44 56.224 100.44 56.48 100.44C56.736 100.355 56.992 100.312 57.248 100.312L56.352 99.672C56.2667 99.672 56.224 99.672 56.224 99.672C56.224 99.5867 56.1813 99.544 56.096 99.544L54.304 98.008L54.048 97.752C53.9627 97.752 53.92 97.6667 53.92 97.496C53.92 97.1547 53.7493 96.984 53.408 96.984C53.152 96.984 52.896 96.984 52.64 96.984C52.384 96.984 52.256 96.7707 52.256 96.344C52.1707 96.344 52.128 96.344 52.128 96.344C52.128 96.2587 52.128 96.216 52.128 96.216C51.7867 95.5333 51.2747 94.9787 50.592 94.552C49.9947 94.1253 49.3973 93.6133 48.8 93.016L48.672 92.888C48.5867 92.7173 48.5013 92.632 48.416 92.632C48.3307 92.5467 48.2453 92.4613 48.16 92.376C48.16 92.2907 48.1173 92.248 48.032 92.248C48.032 92.248 48.032 92.2053 48.032 92.12C47.6907 91.7787 47.264 91.4373 46.752 91.096C46.3253 90.6693 46.24 90.1573 46.496 89.56C46.24 89.4747 45.9413 89.432 45.6 89.432C45.2587 89.432 45.0027 89.304 44.832 89.048C44.6613 88.7067 44.4907 88.408 44.32 88.152C44.1493 87.8107 43.8933 87.5547 43.552 87.384C43.4667 87.384 43.424 87.384 43.424 87.384C43.424 87.2987 43.3813 87.256 43.296 87.256L40.992 84.44L40.864 84.312C40.7787 84.1413 40.6507 84.0133 40.48 83.928C40.3947 83.8427 40.352 83.7573 40.352 83.672C40.2667 82.904 39.84 82.3067 39.072 81.88C38.3893 81.4533 37.9627 80.9413 37.792 80.344C37.7067 80.0027 37.5787 79.704 37.408 79.448C37.3227 79.1067 37.1093 78.808 36.768 78.552C36.768 78.4667 36.4693 78.1253 35.872 77.528C35.36 76.8453 35.104 76.504 35.104 76.504C34.6773 75.9067 34.464 75.1813 34.464 74.328C34.464 73.1333 34.7627 72.0667 35.36 71.128C35.9573 70.104 36.5547 69.8053 37.152 70.232C37.408 70.4027 37.664 70.872 37.92 71.64C38.176 72.408 38.6453 73.1333 39.328 73.816V73.944C39.584 74.5413 39.84 75.0107 40.096 75.352C40.352 75.6933 40.6933 76.2907 41.12 77.144C41.12 77.144 41.2053 77.4 41.376 77.912C41.632 78.3387 41.8027 78.552 41.888 78.552C42.0587 78.9787 42.1867 79.32 42.272 79.576C42.3573 79.832 42.6987 80.0027 43.296 80.088C43.3813 80.088 43.424 80.1307 43.424 80.216C43.424 80.216 43.4667 80.216 43.552 80.216C44.6613 82.008 46.1547 83.8853 48.032 85.848C48.032 85.9333 48.032 85.976 48.032 85.976C48.1173 85.976 48.16 86.0187 48.16 86.104C48.5013 86.2747 48.5867 86.5733 48.416 87C48.2453 87.3413 48.3307 87.5547 48.672 87.64C48.8427 87.7253 49.0133 87.6827 49.184 87.512C49.3547 87.3413 49.4827 87.3413 49.568 87.512C50.1653 88.1947 50.72 88.8347 51.232 89.432C51.744 90.0293 52.3413 90.584 53.024 91.096L53.152 91.224C54.432 92.4187 55.7547 93.6133 57.12 94.808L57.248 94.936C57.4187 95.192 57.5893 95.4053 57.76 95.576C57.9307 95.6613 58.0587 95.832 58.144 96.088C58.2293 96.4293 58.4427 96.6427 58.784 96.728C59.2107 96.728 59.552 96.856 59.808 97.112C59.8933 97.112 59.936 97.1547 59.936 97.24C60.2773 97.496 60.6187 97.752 60.96 98.008C61.3867 98.264 61.7707 98.5627 62.112 98.904L62.752 98.648C64.032 98.136 65.3973 97.624 66.848 97.112C68.384 96.6 69.9627 95.96 71.584 95.192C71.7547 95.1067 71.84 95.32 71.84 95.832C71.9253 96.2587 72.0533 96.4293 72.224 96.344C72.3947 96.2587 72.608 95.9173 72.864 95.32C73.12 94.7227 73.3333 94.3813 73.504 94.296C73.8453 93.8693 74.4427 93.4853 75.296 93.144C76.2347 92.8027 76.6187 92.7173 76.448 92.888C78.1547 91.9493 79.8187 90.9253 81.44 89.816C83.1467 88.7067 84.64 87.512 85.92 86.232L86.944 84.952C87.2853 84.6107 87.5413 84.6107 87.712 84.952C87.6267 85.1227 87.584 85.464 87.584 85.976C88.096 85.8907 88.3947 85.5067 88.48 84.824C88.5653 84.056 88.6507 83.3733 88.736 82.776C89.1627 82.264 89.5893 81.7947 90.016 81.368C90.4427 80.856 90.8267 80.3013 91.168 79.704C91.2533 79.6187 91.3813 79.576 91.552 79.576C91.808 79.576 92.064 79.6187 92.32 79.704C92.6613 79.7893 92.9173 79.6613 93.088 79.32C92.9173 78.8933 92.7467 78.5947 92.576 78.424C92.4907 78.168 92.5333 77.8267 92.704 77.4H92.832L93.216 76.76C93.6427 76.0773 94.112 75.5653 94.624 75.224C95.136 74.7973 95.4347 74.0293 95.52 72.92H95.648C97.3547 69.9333 98.208 66.7333 98.208 63.32C98.208 59.3947 96.9707 55.8533 94.496 52.696C92.0213 49.5387 88.1387 47.704 82.848 47.192C82.7627 47.1067 82.2507 46.9787 81.312 46.808C80.4587 46.552 79.9467 46.424 79.776 46.424C78.752 46.3387 78.1973 46.3813 78.112 46.552C78.0267 46.6373 77.5573 46.5947 76.704 46.424C75.8507 45.9973 75.0827 45.8267 74.4 45.912C73.8027 45.912 73.4187 45.8693 73.248 45.784L70.304 46.168C67.4027 46.0827 65.312 46.2533 64.032 46.68C62.752 47.1067 61.5573 47.4053 60.448 47.576L55.584 48.344C55.2427 48.2587 54.9867 48.2587 54.816 48.344C54.6453 48.344 54.4747 48.4293 54.304 48.6L51.36 49.496H51.232C51.0613 49.5813 50.7627 49.6667 50.336 49.752C49.9093 49.752 49.6107 49.88 49.44 50.136C48.8427 50.2213 48.2027 50.4347 47.52 50.776H47.392C47.0507 51.3733 46.496 51.5867 45.728 51.416L43.936 52.312C43.7653 52.3973 43.5093 52.312 43.168 52.056C42.912 51.7147 42.6987 51.4587 42.528 51.288C42.784 51.6293 42.912 51.9707 42.912 52.312C42.912 52.9093 42.5707 53.208 41.888 53.208C41.5467 53.3787 41.1627 53.592 40.736 53.848C40.3093 54.104 39.8827 54.3173 39.456 54.488C39.2 54.6587 38.688 54.744 37.92 54.744C37.664 54.744 37.3653 54.744 37.024 54.744C36.768 54.744 36.5547 54.8293 36.384 55V55.128C36.384 55.2133 36.4267 55.3413 36.512 55.512C36.5973 55.6827 36.64 55.8533 36.64 56.024C36.64 56.3653 36.384 56.664 35.872 56.92C35.4453 57.176 35.1467 57.3893 34.976 57.56H34.848C34.7627 57.6453 34.5067 57.6027 34.08 57.432C33.6533 57.176 33.3973 57.0907 33.312 57.176V57.304C33.312 57.4747 33.3973 57.688 33.568 57.944C33.7387 58.2 33.7813 58.3707 33.696 58.456H33.568C33.2267 58.712 32.8853 58.968 32.544 59.224C32.2027 59.48 31.904 59.7787 31.648 60.12C31.3067 60.376 30.9653 60.6747 30.624 61.016C30.368 61.272 30.0267 61.4853 29.6 61.656C29.5147 61.656 29.344 61.4853 29.088 61.144C28.832 60.8027 28.6613 60.7173 28.576 60.888C28.32 61.144 28.192 61.6133 28.192 62.296C28.2773 62.9787 28.2347 63.448 28.064 63.704C27.8933 64.0453 27.5947 64.2587 27.168 64.344C26.7413 64.344 26.4427 64.5147 26.272 64.856V64.984C26.272 65.3253 26.3573 65.7093 26.528 66.136C26.6987 66.5627 26.784 66.904 26.784 67.16C26.6987 67.5867 26.656 68.0133 26.656 68.44C26.656 68.7813 26.656 69.1653 26.656 69.592C26.656 69.848 26.656 70.0613 26.656 70.232C26.656 70.4027 26.7413 70.616 26.912 70.872C27.2533 71.896 27.936 72.8773 28.96 73.816C29.472 74.1573 29.728 74.5413 29.728 74.968C29.728 75.224 29.5573 75.352 29.216 75.352C28.704 75.352 28.1493 75.0107 27.552 74.328C27.4667 74.2427 27.168 74.0293 26.656 73.688C26.2293 73.3467 25.9307 73.0907 25.76 72.92C23.968 71.2133 22.8587 69.5067 22.432 67.8C22.0053 66.0933 21.8773 64.5573 22.048 63.192C22.1333 62.7653 22.304 62.4667 22.56 62.296C22.816 62.1253 23.0293 61.8693 23.2 61.528C23.3707 61.272 23.4133 61.0587 23.328 60.888C23.2427 60.7173 23.2 60.504 23.2 60.248C23.2 59.8213 23.4987 59.352 24.096 58.84C24.7787 58.2427 25.4187 57.688 26.016 57.176C26.6987 56.5787 27.04 56.1947 27.04 56.024C27.9787 55.1707 29.0027 54.4027 30.112 53.72C31.3067 52.952 32.544 52.2693 33.824 51.672H33.952C34.2933 51.3307 34.6347 51.16 34.976 51.16C35.3173 51.16 35.744 51.288 36.256 51.544C36.1707 51.3733 36.0427 51.2453 35.872 51.16C35.7013 50.9893 35.6587 50.8613 35.744 50.776C37.1947 50.0933 38.688 49.496 40.224 48.984C41.76 48.3867 43.296 47.8747 44.832 47.448C45.2587 47.448 45.6 47.32 45.856 47.064L46.496 46.936C47.0933 47.1067 47.52 46.9787 47.776 46.552C49.1413 46.1253 51.1893 45.656 53.92 45.144C56.6507 44.632 59.5947 44.248 62.752 43.992C66.2507 43.736 69.6213 43.608 72.864 43.608C76.8747 43.608 79.6907 43.736 81.312 43.992C82.7627 44.1627 84.7253 44.632 87.2 45.4C89.6747 46.168 92.192 47.4053 94.752 49.112C97.312 50.7333 99.4027 52.952 101.024 55.768C102.645 58.4987 103.243 61.9973 102.816 66.264C102.731 67.8 102.389 69.2933 101.792 70.744C101.195 72.1093 100.555 73.4747 99.872 74.84C99.616 75.2667 99.36 75.736 99.104 76.248C98.9333 76.76 98.72 77.2293 98.464 77.656C98.3787 77.7413 98.2507 77.8693 98.08 78.04C97.9093 78.1253 97.7813 78.2533 97.696 78.424L96.672 79.576C96.3307 80.088 95.9467 80.6 95.52 81.112C95.1787 81.624 94.7947 82.136 94.368 82.648L93.984 83.032C92.448 84.568 90.8693 86.1893 89.248 87.896C87.712 89.5173 86.048 90.9253 84.256 92.12V92.248C84 92.3333 83.744 92.4613 83.488 92.632C83.3173 92.7173 83.1467 92.8453 82.976 93.016L82.848 93.144C82.592 93.2293 82.336 93.3147 82.08 93.4C81.9093 93.4853 81.696 93.6987 81.44 94.04C81.0987 94.296 80.8 94.424 80.544 94.424C79.3493 95.0213 78.2827 95.5333 77.344 95.96C76.4053 96.3013 75.5947 96.6427 74.912 96.984C74.912 96.984 74.2293 97.2827 72.864 97.88C71.584 98.392 70.0907 98.9467 68.384 99.544C66.7627 100.056 65.3547 100.397 64.16 100.568V100.696C64.16 101.293 64.416 101.592 64.928 101.592C65.5253 101.592 65.9947 101.72 66.336 101.976L66.464 102.104C68.3413 103.384 70.2613 104.621 72.224 105.816C74.272 107.011 76.3627 108.205 78.496 109.4C81.3973 110.936 84.0427 112.045 86.432 112.728C88.9067 113.411 91.0827 113.752 92.96 113.752C95.6907 113.752 97.7813 113.197 99.232 112.088C100.683 110.979 101.408 109.656 101.408 108.12C101.408 107.352 101.28 106.669 101.024 106.072L100.896 105.944C100.811 105.432 100.683 104.963 100.512 104.536C100.341 104.109 100.043 103.768 99.616 103.512C99.5307 103.427 99.488 103.341 99.488 103.256C99.232 102.915 98.7627 102.659 98.08 102.488C98.08 102.403 98.0373 102.36 97.952 102.36C97.7813 102.189 97.696 102.061 97.696 101.976C97.6107 101.976 97.568 101.933 97.568 101.848C97.2267 101.421 96.928 101.08 96.672 100.824C96.5013 100.568 96.1173 100.483 95.52 100.568L95.392 100.44C95.2213 100.269 95.136 100.056 95.136 99.8C95.136 99.3733 95.264 99.0747 95.52 98.904C95.8613 98.648 96.2027 98.648 96.544 98.904C96.8853 99.0747 97.1413 99.2453 97.312 99.416C97.3973 99.416 97.4827 99.4587 97.568 99.544C97.9093 99.8853 98.208 100.227 98.464 100.568C98.72 100.909 99.1467 101.123 99.744 101.208C99.744 101.208 99.744 101.251 99.744 101.336C99.744 101.336 99.7867 101.336 99.872 101.336L100.384 101.848C100.64 102.531 101.109 103.128 101.792 103.64C101.877 103.725 101.92 103.811 101.92 103.896C102.347 104.323 102.645 104.792 102.816 105.304C103.072 105.816 103.285 106.371 103.456 106.968V107.608C103.456 108.12 103.584 108.632 103.84 109.144V109.4C103.84 111.533 103.115 113.453 101.664 115.16C100.213 116.952 97.952 118.019 94.88 118.36H94.752C94.496 118.189 94.24 118.061 93.984 117.976C93.8133 117.891 93.6427 117.848 93.472 117.848C93.3013 117.848 93.0027 118.061 92.576 118.488H92.32ZM121.25 120.92C121.165 120.92 120.653 120.877 119.714 120.792C118.861 120.792 118.434 120.749 118.434 120.664C118.263 120.323 118.093 120.152 117.922 120.152C117.837 120.152 117.623 120.109 117.282 120.024C117.197 119.939 116.77 119.64 116.002 119.128C115.234 118.616 114.679 118.189 114.338 117.848C113.741 118.189 113.101 118.488 112.418 118.744C111.735 119.085 111.053 119.256 110.37 119.256C108.834 119.256 107.298 118.659 105.762 117.464C104.311 116.355 103.586 115.117 103.586 113.752C103.586 112.813 103.799 111.789 104.226 110.68C104.567 109.656 104.695 109.059 104.61 108.888C104.866 108.461 105.122 107.907 105.378 107.224C105.719 106.541 105.847 105.987 105.762 105.56C105.933 105.219 106.317 104.323 106.914 102.872C107.511 101.336 108.109 99.8853 108.706 98.52C109.389 97.0693 109.815 96.344 109.986 96.344L110.114 95.448C110.199 95.0213 110.413 94.8507 110.754 94.936C111.095 94.936 111.266 95.1493 111.266 95.576C111.181 96.7707 111.01 97.9227 110.754 99.032C110.498 100.141 110.37 101.379 110.37 102.744V103.128C110.37 104.237 110.498 105.304 110.754 106.328C111.095 107.352 111.181 108.419 111.01 109.528C111.01 109.699 111.053 109.869 111.138 110.04C111.309 110.296 111.437 110.509 111.522 110.68H111.65C112.077 112.045 112.589 113.283 113.186 114.392C113.869 113.965 114.509 113.496 115.106 112.984C115.703 112.472 116.258 111.96 116.77 111.448C117.453 111.363 117.879 111.149 118.05 110.808C118.306 110.467 118.519 110.04 118.69 109.528C119.629 108.675 120.482 107.736 121.25 106.712C122.103 105.688 122.957 104.749 123.81 103.896L123.938 103.768C124.279 103.171 124.706 103 125.218 103.256C125.389 102.573 125.687 101.848 126.114 101.08C126.626 100.312 127.181 99.5867 127.778 98.904C128.375 98.136 128.93 97.368 129.442 96.6L134.562 88.408C134.989 87.7253 135.373 87.0853 135.714 86.488C136.055 85.8053 136.439 85.1653 136.866 84.568C137.037 84.312 137.25 84.0987 137.506 83.928C137.847 83.7573 138.061 83.6293 138.146 83.544V83.16C138.146 82.648 138.231 82.264 138.402 82.008H138.53C138.871 81.4107 139.213 80.728 139.554 79.96C139.981 79.192 140.407 78.552 140.834 78.04C141.005 77.8693 141.218 77.7413 141.474 77.656C141.73 77.4853 141.901 77.272 141.986 77.016C141.986 76.9307 141.943 76.7173 141.858 76.376C141.773 76.0347 141.901 75.7787 142.242 75.608L142.37 75.352V75.224C143.223 75.1387 143.565 74.9253 143.394 74.584C143.309 74.2427 143.309 73.816 143.394 73.304L143.778 72.792V72.664C144.375 72.408 144.717 72.024 144.802 71.512C144.973 70.9147 145.101 70.36 145.186 69.848C145.357 69.7627 145.655 69.208 146.082 68.184C146.594 67.16 147.063 66.0933 147.49 64.984C148.002 63.7893 148.343 63.064 148.514 62.808C148.941 62.6373 149.154 62.3813 149.154 62.04C149.154 61.6133 149.197 61.2293 149.282 60.888C149.453 60.4613 149.495 59.992 149.41 59.48C149.41 58.968 149.453 58.456 149.538 57.944C149.709 57.432 149.837 56.8773 149.922 56.28C150.093 55.6827 150.178 55.0853 150.178 54.488V54.36C150.093 54.1893 150.05 53.9333 150.05 53.592C150.05 53.2507 150.135 52.952 150.306 52.696C150.477 52.44 150.647 52.1413 150.818 51.8V51.672C150.989 51.5013 151.202 51.16 151.458 50.648C151.799 50.136 152.141 49.9227 152.482 50.008C152.823 49.8373 153.079 49.752 153.25 49.752C153.677 49.752 154.103 49.9653 154.53 50.392H154.658L155.17 50.52C155.426 50.1787 155.597 49.5387 155.682 48.6C155.853 47.576 155.938 46.808 155.938 46.296V46.168C156.194 45.656 156.365 45.2293 156.45 44.888C156.621 44.4613 156.621 43.9493 156.45 43.352C156.621 43.1813 156.791 43.0107 156.962 42.84C157.133 42.584 157.346 42.3707 157.602 42.2C157.858 42.2853 157.986 42.6267 157.986 43.224C157.986 43.5653 157.943 43.9493 157.858 44.376C157.858 44.7173 157.858 44.9733 157.858 45.144C157.773 45.3147 157.73 45.6133 157.73 46.04C157.303 46.2107 157.09 46.4667 157.09 46.808C157.09 47.064 157.133 47.3627 157.218 47.704C157.389 47.96 157.474 48.216 157.474 48.472C157.389 49.6667 157.303 50.9467 157.218 52.312C157.218 53.6773 157.218 55.0853 157.218 56.536C157.218 60.376 157.346 64.472 157.602 68.824C157.943 73.176 158.413 77.4 159.01 81.496C159.607 85.592 160.333 89.2613 161.186 92.504H161.314V92.888C161.314 93.2293 161.399 93.5707 161.57 93.912C161.741 94.2533 161.911 94.5947 162.082 94.936V95.064L162.85 96.984C162.85 97.5813 163.021 98.136 163.362 98.648C163.789 99.16 164.173 99.6293 164.514 100.056C164.599 100.568 164.642 100.952 164.642 101.208C164.727 101.379 165.069 101.507 165.666 101.592L166.178 102.104H166.306C166.647 103.213 167.202 103.597 167.97 103.256L168.098 103.384C168.183 103.299 168.354 103.256 168.61 103.256C169.037 103.256 169.378 103.469 169.634 103.896C169.89 104.323 170.189 104.621 170.53 104.792L170.658 104.92C170.829 104.92 170.957 104.707 171.042 104.28C171.213 103.853 171.383 103.597 171.554 103.512C171.895 103.597 172.45 103.384 173.218 102.872C174.071 102.275 174.882 101.635 175.65 100.952C176.418 100.184 176.845 99.672 176.93 99.416L177.058 99.288C177.485 98.8613 177.698 98.52 177.698 98.264C177.698 97.9227 177.954 97.5387 178.466 97.112L179.874 94.808V94.68C180.642 94.3387 181.026 93.6133 181.026 92.504C181.197 92.248 181.367 91.992 181.538 91.736C181.709 91.3947 181.837 91.0533 181.922 90.712V90.584C182.263 90.2427 182.562 89.9867 182.818 89.816C183.159 89.6453 183.159 89.2613 182.818 88.664L184.098 85.592V85.464L184.994 83.8C185.421 82.776 185.762 81.7093 186.018 80.6C186.359 79.4907 186.701 78.424 187.042 77.4C187.127 77.144 187.298 76.5467 187.554 75.608C187.81 74.584 188.066 73.56 188.322 72.536C188.663 71.512 188.834 70.872 188.834 70.616C188.919 70.1893 189.047 69.8053 189.218 69.464C189.474 69.1227 189.645 68.7813 189.73 68.44C189.901 66.8187 190.199 65.24 190.626 63.704C191.053 62.168 191.479 60.632 191.906 59.096C191.821 58.9253 191.735 58.7547 191.65 58.584C191.65 58.4133 191.65 58.2427 191.65 58.072L191.778 57.944L192.034 56.28C192.119 55.768 192.29 55.256 192.546 54.744C192.887 54.1467 192.845 53.592 192.418 53.08C192.333 52.3973 192.205 51.3307 192.034 49.88C191.863 48.4293 191.565 47.5333 191.138 47.192C191.053 46.8507 190.882 46.3813 190.626 45.784C190.37 45.1867 190.242 44.76 190.242 44.504C190.242 44.248 190.37 44.0347 190.626 43.864C190.967 43.6933 191.266 43.608 191.522 43.608C192.205 43.608 192.717 43.8213 193.058 44.248C193.485 44.6747 193.911 45.1013 194.338 45.528L194.466 45.656C194.551 46.2533 194.935 46.808 195.618 47.32V47.448C195.959 47.8747 196.173 48.344 196.258 48.856H196.386C196.471 49.0267 196.429 49.1973 196.258 49.368C196.173 49.5387 196.13 49.7093 196.13 49.88C196.301 50.136 196.514 50.3067 196.77 50.392C197.026 50.392 197.239 50.4347 197.41 50.52C197.837 50.9467 198.05 51.544 198.05 52.312C198.05 53.08 198.349 53.592 198.946 53.848C199.373 54.2747 199.757 54.7013 200.098 55.128C200.525 55.4693 201.037 55.768 201.634 56.024C201.805 55.9387 202.018 55.9387 202.274 56.024C202.53 56.1093 202.786 56.1093 203.042 56.024V55.896H203.17C203.341 55.7253 203.469 55.64 203.554 55.64C203.981 55.64 204.194 55.9387 204.194 56.536C204.194 56.9627 203.981 57.304 203.554 57.56L203.17 57.816C203.085 57.7307 202.957 57.688 202.786 57.688C202.53 57.688 202.231 57.7733 201.89 57.944C201.634 58.1147 201.335 58.2 200.994 58.2C200.653 57.944 200.354 57.7307 200.098 57.56C199.927 57.3893 199.629 57.304 199.202 57.304L198.946 57.176L196.13 54.872C196.045 54.7867 195.959 54.744 195.874 54.744C195.703 54.744 195.618 54.9147 195.618 55.256C195.618 55.512 195.618 55.7253 195.618 55.896C195.703 56.2373 195.746 56.536 195.746 56.792C195.746 57.048 195.746 57.3467 195.746 57.688C195.746 58.456 195.703 59.224 195.618 59.992C195.533 60.76 195.447 61.4853 195.362 62.168C195.021 62.5093 194.765 62.8507 194.594 63.192C194.509 63.448 194.637 63.7893 194.978 64.216C194.978 64.472 194.807 65.2827 194.466 66.648C194.21 68.0133 193.997 68.9093 193.826 69.336C193.229 71.384 192.717 73.2613 192.29 74.968C191.863 76.6747 191.181 78.5093 190.242 80.472C190.157 80.728 190.114 81.0267 190.114 81.368C190.114 81.7093 190.029 82.008 189.858 82.264V82.392C189.346 83.7573 188.834 85.1227 188.322 86.488C187.81 87.8533 187.213 89.1333 186.53 90.328L184.866 93.272C184.525 93.8693 184.183 94.3813 183.842 94.808C183.501 95.2347 183.159 95.7467 182.818 96.344C182.391 97.1973 181.965 98.0507 181.538 98.904C181.111 99.672 180.557 100.397 179.874 101.08V101.208C179.703 101.123 179.533 101.08 179.362 101.08C178.935 101.08 178.637 101.293 178.466 101.72C178.295 102.061 178.125 102.317 177.954 102.488C177.869 102.573 177.741 102.616 177.57 102.616C176.973 102.616 176.674 102.744 176.674 103C176.674 103.341 176.589 103.64 176.418 103.896H176.29C175.437 104.493 174.498 104.963 173.474 105.304C172.45 105.645 171.426 105.816 170.402 105.816C169.207 105.816 168.226 105.645 167.458 105.304H167.202C166.861 104.365 166.263 104.109 165.41 104.536L165.282 104.408C164.855 103.981 164.386 103.597 163.874 103.256C163.362 103 162.893 102.659 162.466 102.232C161.101 100.781 159.821 98.8613 158.626 96.472C157.431 93.9973 156.621 91.8213 156.194 89.944V89.688C156.194 89.6027 156.194 89.56 156.194 89.56C156.279 89.4747 156.322 89.3893 156.322 89.304C156.322 89.048 156.237 88.792 156.066 88.536C155.981 88.28 155.853 88.0667 155.682 87.896C155.682 87.7253 155.554 87.2133 155.298 86.36C155.127 85.4213 154.957 84.4827 154.786 83.544C154.615 82.52 154.53 81.7947 154.53 81.368C154.53 80.7707 154.573 80.3013 154.658 79.96C154.829 79.6187 154.701 79.2773 154.274 78.936V78.552C154.274 77.8693 154.189 77.2293 154.018 76.632C153.933 75.9493 153.89 75.3093 153.89 74.712V74.584C153.89 73.7307 153.847 72.9627 153.762 72.28C153.762 71.512 153.719 70.744 153.634 69.976C153.549 69.2933 153.506 68.568 153.506 67.8C153.591 67.032 153.634 66.264 153.634 65.496V63.704C153.634 62.5947 153.549 62.04 153.378 62.04C153.122 62.04 152.653 62.68 151.97 63.96C151.799 64.3013 151.373 65.112 150.69 66.392C150.093 67.5867 149.41 68.9093 148.642 70.36C147.959 71.7253 147.319 72.92 146.722 73.944C146.21 74.968 145.911 75.5227 145.826 75.608C145.741 76.2053 145.442 76.76 144.93 77.272V77.4L142.626 81.368V81.496C142.455 81.6667 142.285 81.88 142.114 82.136C142.029 82.392 141.901 82.648 141.73 82.904V83.032L140.194 85.464V85.592C139.767 85.7627 139.426 85.9333 139.17 86.104C138.914 86.2747 138.914 86.6587 139.17 87.256V87.384L138.018 89.176V89.304C137.421 89.6453 136.994 90.1147 136.738 90.712C136.567 91.224 136.354 91.7787 136.098 92.376H135.97C135.543 93.144 135.074 93.9547 134.562 94.808C134.135 95.6613 133.623 96.4293 133.026 97.112C132.599 97.7093 131.831 98.7333 130.722 100.184C129.613 101.549 128.973 102.573 128.802 103.256H128.674C128.589 103.597 128.375 103.896 128.034 104.152C127.778 104.493 127.565 104.792 127.394 105.048C125.858 107.096 124.023 109.272 121.89 111.576C119.757 113.965 117.581 115.843 115.362 117.208C116.13 117.976 117.026 118.616 118.05 119.128C118.477 119.128 118.69 119.213 118.69 119.384C118.69 119.555 118.775 119.725 118.946 119.896H119.202C119.458 119.896 119.799 119.853 120.226 119.768C120.738 119.768 121.079 119.768 121.25 119.768C121.677 119.768 121.89 119.939 121.89 120.28C121.89 120.707 121.677 120.92 121.25 120.92ZM108.834 116.312C109.261 116.312 109.73 116.184 110.242 115.928C110.839 115.672 111.522 115.373 112.29 115.032C112.205 114.861 112.162 114.733 112.162 114.648C112.162 114.563 112.077 114.477 111.906 114.392C111.821 114.136 111.693 113.88 111.522 113.624C111.437 113.368 111.309 113.112 111.138 112.856V112.728C110.967 112.301 110.797 111.832 110.626 111.32C110.541 110.808 110.413 110.339 110.242 109.912H110.114C109.773 109.229 109.517 107.949 109.346 106.072C109.261 104.28 109.218 102.957 109.218 102.104C109.133 102.531 108.919 103.341 108.578 104.536C108.322 105.731 108.066 106.883 107.81 107.992C107.639 109.187 107.554 109.955 107.554 110.296C107.042 110.637 106.786 110.936 106.786 111.192C106.786 111.363 106.829 111.533 106.914 111.704C107.085 111.875 107.213 112.088 107.298 112.344C107.298 114.989 107.81 116.312 108.834 116.312Z" fill="#3AC2DA"/>
<path d="M260.512 112.216L259.36 111.832C259.275 112.088 259.061 112.173 258.72 112.088C258.464 112.088 258.251 112.003 258.08 111.832C257.653 111.149 257.184 110.851 256.672 110.936C256.16 111.107 255.477 111.021 254.624 110.68H254.496C254.24 110.68 253.941 110.723 253.6 110.808C253.344 110.979 253.088 111.021 252.832 110.936L251.936 110.168C251.936 110.253 251.851 110.296 251.68 110.296C251.424 110.296 251.168 110.253 250.912 110.168C250.656 110.083 250.571 109.997 250.656 109.912L248.48 108.76L248.224 108.888L246.816 107.352C246.731 107.437 246.645 107.48 246.56 107.48C246.389 107.48 246.219 107.352 246.048 107.096C245.877 106.925 245.749 106.84 245.664 106.84C245.152 106.413 244.555 105.987 243.872 105.56C243.275 105.219 242.677 104.835 242.08 104.408C241.995 104.323 241.952 104.152 241.952 103.896C241.952 103.725 241.867 103.597 241.696 103.512C241.44 103.256 241.141 103 240.8 102.744C240.459 102.488 240.245 102.189 240.16 101.848L239.648 101.976C239.136 101.037 238.539 100.184 237.856 99.416C237.173 98.648 236.875 97.624 236.96 96.344H236.704L235.04 95.704V95.32C234.955 95.32 234.827 95.3627 234.656 95.448C234.485 95.448 234.272 95.4053 234.016 95.32C233.419 95.064 232.864 94.7653 232.352 94.424C231.84 93.9973 231.456 93.4853 231.2 92.888C231.115 92.632 230.987 92.504 230.816 92.504C230.731 92.504 230.645 92.4613 230.56 92.376C230.389 91.9493 230.133 91.5653 229.792 91.224C229.451 90.8827 229.323 90.456 229.408 89.944L229.792 86.744C230.475 85.976 230.987 85.592 231.328 85.592C231.669 85.592 231.84 85.976 231.84 86.744L231.072 88.024L231.2 89.56C231.371 89.7307 231.627 89.816 231.968 89.816C232.309 89.816 232.565 89.7733 232.736 89.688L232.608 90.456L233.12 91.352L233.248 91.096L234.016 91.352L234.656 92.248C234.827 91.9067 234.997 91.9067 235.168 92.248C235.339 92.504 235.424 92.632 235.424 92.632L236.064 92.12C235.979 91.6933 235.893 91.2667 235.808 90.84C235.723 90.328 235.68 89.8587 235.68 89.432C235.68 88.8347 235.723 88.408 235.808 88.152C236.064 87.2133 236.149 86.488 236.064 85.976C236.064 85.976 236.235 85.6773 236.576 85.08C236.917 84.3973 237.259 83.9707 237.6 83.8L238.624 83.16L238.88 83.544C238.795 83.6293 238.624 83.8853 238.368 84.312C238.112 84.7387 237.899 85.0373 237.728 85.208C237.045 86.6587 236.789 88.1093 236.96 89.56C236.96 89.6453 236.96 89.7733 236.96 89.944C237.045 90.0293 237.045 90.2 236.96 90.456V92.248C237.131 92.3333 237.216 92.6747 237.216 93.272C237.216 93.784 237.301 93.9973 237.472 93.912C237.899 93.8267 238.24 93.9547 238.496 94.296C238.837 94.552 239.093 94.424 239.264 93.912L240.16 94.936H241.44C241.355 95.1067 241.568 95.2773 242.08 95.448C242.677 95.5333 243.275 95.576 243.872 95.576C244.469 95.576 244.768 95.576 244.768 95.576L245.536 96.216C245.536 96.1307 245.664 96.216 245.92 96.472H246.048C246.304 96.472 246.56 96.3867 246.816 96.216C247.157 96.0453 247.413 95.96 247.584 95.96C248.011 96.0453 248.437 96.216 248.864 96.472C249.376 96.728 249.76 96.728 250.016 96.472L251.04 96.856L252.192 96.216C252.363 96.3867 252.704 96.5573 253.216 96.728C253.387 96.8133 253.643 96.856 253.984 96.856C254.752 96.856 255.307 96.6853 255.648 96.344L256.16 96.984C257.355 96.8987 258.549 96.8987 259.744 96.984C261.024 96.984 262.219 96.984 263.328 96.984C264.267 96.984 265.163 96.984 266.016 96.984C266.955 96.8987 267.851 96.8133 268.704 96.728C268.96 96.728 269.173 96.728 269.344 96.728C269.515 96.6427 269.643 96.6 269.728 96.6C270.325 96.6 271.008 96.4293 271.776 96.088C272.544 95.7467 273.184 95.576 273.696 95.576C273.867 95.576 274.251 95.448 274.848 95.192C275.531 94.8507 275.744 95.064 275.488 95.832L274.208 96.472L273.824 96.344C273.739 96.4293 273.355 96.6427 272.672 96.984C272.075 97.24 271.733 97.2827 271.648 97.112L268.96 97.496C268.619 97.5813 268.107 97.6667 267.424 97.752C266.741 97.8373 266.4 97.8373 266.4 97.752L265.248 98.008C265.248 97.9227 265.163 97.88 264.992 97.88C264.651 97.88 264.139 98.008 263.456 98.264C262.859 98.52 262.517 98.6053 262.432 98.52C262.347 98.3493 261.92 98.3493 261.152 98.52C260.469 98.6053 259.787 98.648 259.104 98.648C258.08 98.648 257.525 98.4773 257.44 98.136L256.416 98.52C256.587 98.3493 256.501 98.264 256.16 98.264C255.904 98.1787 255.691 98.1787 255.52 98.264L255.392 98.904C255.221 98.9893 255.051 98.9893 254.88 98.904C254.709 98.8187 254.539 98.7333 254.368 98.648C253.856 98.392 253.045 98.264 251.936 98.264C250.827 98.264 249.76 98.2213 248.736 98.136C247.712 98.0507 247.072 97.8373 246.816 97.496L245.792 98.008C245.451 98.008 244.939 97.9653 244.256 97.88C243.659 97.7093 243.189 97.5813 242.848 97.496C242.251 97.3253 241.568 97.1547 240.8 96.984C240.117 96.8133 239.435 96.7707 238.752 96.856L239.392 97.88V98.136C239.989 98.4773 240.459 99.032 240.8 99.8C241.227 100.483 241.867 100.739 242.72 100.568L243.104 102.232L244.128 102.872C244.213 102.787 244.299 102.744 244.384 102.744C244.64 102.744 245.067 102.915 245.664 103.256C246.261 103.597 246.731 103.853 247.072 104.024L247.456 103.768L248.096 104.92C248.181 104.835 248.267 104.792 248.352 104.792C248.608 104.792 248.907 104.877 249.248 105.048C249.589 105.219 249.803 105.261 249.888 105.176L250.784 105.432L251.68 105.176C252.021 105.688 252.235 106.072 252.32 106.328C252.405 106.584 252.533 106.755 252.704 106.84C253.131 107.011 253.131 107.139 252.704 107.224C252.363 107.309 252.192 107.437 252.192 107.608L252.32 107.864H253.472C253.472 107.608 253.771 107.395 254.368 107.224C255.051 107.139 255.733 107.096 256.416 107.096C257.44 107.096 258.037 107.181 258.208 107.352C258.549 107.523 258.635 107.523 258.464 107.352L259.616 107.224L260.384 107.864C260.555 107.608 260.725 107.48 260.896 107.48C261.152 107.48 261.365 107.523 261.536 107.608C261.792 107.779 261.92 107.864 261.92 107.864C262.091 107.949 262.261 107.779 262.432 107.352C262.688 107.011 262.987 106.883 263.328 106.968L263.84 107.096C264.437 107.096 265.035 107.011 265.632 106.84C266.315 106.669 266.699 106.84 266.784 107.352L267.68 106.712L268.32 106.84L268.064 107.864C268.064 108.205 268.107 108.376 268.192 108.376C268.363 108.376 268.576 108.077 268.832 107.48C269.173 106.968 269.344 106.925 269.344 107.352L270.24 106.328C270.496 106.499 270.837 106.584 271.264 106.584C271.947 106.584 272.587 106.328 273.184 105.816C273.781 105.389 274.507 105.091 275.36 104.92L275.488 105.176C275.659 105.091 275.829 105.005 276 104.92C276.256 104.92 276.384 105.005 276.384 105.176L277.792 105.048C278.133 104.792 278.688 104.493 279.456 104.152C280.309 103.811 280.907 103.555 281.248 103.384L281.376 102.872C281.376 102.872 281.589 102.872 282.016 102.872C282.528 102.787 282.827 102.701 282.912 102.616V102.488C282.912 102.317 282.912 102.061 282.912 101.72C282.912 101.293 283.083 101.123 283.424 101.208L284.064 101.592C284.832 101.336 285.344 100.995 285.6 100.568C285.941 100.056 286.453 99.5867 287.136 99.16C287.392 98.9893 287.605 98.776 287.776 98.52C288.032 98.264 288.331 98.0933 288.672 98.008C288.757 98.008 288.885 98.136 289.056 98.392C289.312 98.648 289.568 98.6053 289.824 98.264L289.952 96.984L291.104 96.6L291.744 95.704C291.744 95.704 291.744 95.7467 291.744 95.832C291.829 95.832 291.915 95.832 292 95.832C292.341 95.832 292.725 95.4907 293.152 94.808C293.579 94.1253 293.664 93.656 293.408 93.4L294.688 91.992C294.603 91.48 294.773 90.84 295.2 90.072C295.712 89.304 295.968 88.3653 295.968 87.256C295.968 86.5733 295.755 85.7627 295.328 84.824C294.901 83.8853 294.048 82.8613 292.768 81.752L292.128 81.368C291.104 80.6853 290.165 80.1733 289.312 79.832C288.544 79.4053 287.52 78.9787 286.24 78.552C286.24 78.552 286.112 78.4667 285.856 78.296L282.272 77.272C281.931 77.016 281.163 76.8027 279.968 76.632C278.773 76.4613 277.963 76.3333 277.536 76.248C277.365 76.1627 277.152 76.0347 276.896 75.864C276.725 75.6933 276.555 75.736 276.384 75.992L275.232 75.352C275.061 75.4373 274.848 75.48 274.592 75.48C274.421 75.48 274.251 75.4373 274.08 75.352C273.995 75.2667 273.739 75.224 273.312 75.224C272.715 75.1387 271.733 74.8827 270.368 74.456C269.088 74.0293 268.363 73.9013 268.192 74.072L264.864 72.408L264.48 72.536L263.328 71.896C263.584 72.2373 263.413 72.3227 262.816 72.152C262.219 71.896 261.536 71.5973 260.768 71.256C260 70.8293 259.403 70.5733 258.976 70.488C257.525 69.8907 256.203 69.0373 255.008 67.928C253.899 66.8187 253.344 65.4533 253.344 63.832C253.344 62.3813 253.429 61.3573 253.6 60.76C253.771 60.1627 253.984 59.6507 254.24 59.224C254.581 58.7973 254.88 58.1573 255.136 57.304C255.307 57.048 255.52 56.792 255.776 56.536C256.117 56.1947 256.331 55.8533 256.416 55.512L257.44 54.872C257.525 54.4453 257.739 54.0187 258.08 53.592C258.507 53.1653 258.891 52.8667 259.232 52.696C260.341 52.184 261.579 51.3307 262.944 50.136C264.395 48.856 265.803 47.9173 267.168 47.32C267.509 47.1493 267.808 47.0213 268.064 46.936C268.32 46.7653 268.619 46.6373 268.96 46.552L269.088 46.808C269.856 46.552 271.136 46.168 272.928 45.656C274.72 45.0587 276.683 44.4613 278.816 43.864C281.035 43.2667 283.083 42.7547 284.96 42.328C286.923 41.9013 288.459 41.688 289.568 41.688C290.336 41.688 290.763 41.816 290.848 42.072L292.384 41.176C292.469 41.2613 292.64 41.3467 292.896 41.432C293.152 41.432 293.323 41.3893 293.408 41.304L294.688 41.688C295.029 41.5173 295.285 41.432 295.456 41.432C295.968 41.432 296.523 41.6027 297.12 41.944C297.803 42.2 298.315 42.2853 298.656 42.2C299.083 42.0293 299.381 41.9867 299.552 42.072C299.808 42.072 300.064 42.072 300.32 42.072H300.832C301.088 42.072 301.344 42.1147 301.6 42.2C301.941 42.2 302.283 42.3707 302.624 42.712L303.264 42.84C303.52 43.096 303.648 43.3947 303.648 43.736C303.819 44.0773 304.331 44.2907 305.184 44.376C306.037 44.4613 306.592 44.632 306.848 44.888C307.531 45.4 307.915 46.2533 308 47.448C308.171 48.5573 308.256 49.5813 308.256 50.52C308.171 51.4587 307.787 52.6107 307.104 53.976C306.507 55.256 305.739 56.28 304.8 57.048C304.373 57.3893 303.733 57.7733 302.88 58.2C302.027 58.5413 301.387 58.84 300.96 59.096C300.021 59.6933 298.997 59.992 297.888 59.992C296.267 59.992 295.456 59.6507 295.456 58.968C295.456 58.712 295.755 58.456 296.352 58.2C296.779 58.0293 297.163 57.8587 297.504 57.688C297.931 57.432 298.315 57.1333 298.656 56.792C298.997 56.6213 299.211 56.536 299.296 56.536C299.467 56.4507 299.595 56.3653 299.68 56.28C299.851 56.1947 299.979 56.1093 300.064 56.024C300.149 55.8533 300.32 55.6827 300.576 55.512C301.088 55.0853 301.728 54.4027 302.496 53.464C303.349 52.44 303.947 51.672 304.288 51.16C304.373 50.7333 304.544 50.1787 304.8 49.496C305.141 48.728 305.312 48.0453 305.312 47.448C305.312 46.936 305.184 46.552 304.928 46.296C304.843 46.296 304.8 46.2533 304.8 46.168L304.672 45.912C303.989 44.4613 302.624 43.6507 300.576 43.48C298.613 43.224 296.949 43.096 295.584 43.096C295.584 43.096 295.499 43.0533 295.328 42.968C295.157 42.8827 295.072 42.9253 295.072 43.096L292.256 43.352L292 43.096L289.312 43.608L289.056 43.48L286.24 44.248C286.325 44.0773 286.283 44.0347 286.112 44.12C285.941 44.12 285.856 44.12 285.856 44.12L283.04 44.888L282.912 44.76L281.632 45.528C281.632 45.4427 281.589 45.3573 281.504 45.272C281.419 45.1867 281.376 45.144 281.376 45.144C281.291 45.2293 281.205 45.3573 281.12 45.528C281.035 45.6133 280.907 45.6987 280.736 45.784L280.48 45.656L278.688 46.296C278.688 46.3813 278.517 46.424 278.176 46.424C275.872 47.448 273.355 48.6427 270.624 50.008C267.979 51.288 265.931 53.1227 264.48 55.512L264.224 55.256L263.072 56.28C262.987 56.3653 262.859 56.4933 262.688 56.664C262.603 56.8347 262.475 57.1333 262.304 57.56C262.048 58.2427 261.664 59.0533 261.152 59.992C260.725 60.9307 260.512 61.8267 260.512 62.68C260.512 63.5333 260.683 64.344 261.024 65.112C261.365 65.7947 261.621 65.9653 261.792 65.624L262.944 66.392L263.328 67.8L263.584 67.672L265.248 68.952H265.504L267.552 70.616L269.088 71.512H270.112L271.648 72.024C271.819 72.1093 271.947 72.2373 272.032 72.408C272.203 72.4933 272.416 72.408 272.672 72.152L273.952 73.048C274.037 72.9627 274.165 72.92 274.336 72.92C274.507 72.92 274.677 73.0053 274.848 73.176C275.019 73.2613 275.147 73.3467 275.232 73.432L275.488 73.304L279.968 75.096C280.139 75.0107 280.352 74.968 280.608 74.968C281.035 74.968 281.376 75.0533 281.632 75.224C281.973 75.3093 282.315 75.3947 282.656 75.48C282.827 75.5653 283.04 75.6933 283.296 75.864C283.637 76.0347 283.808 76.1627 283.808 76.248C283.979 76.3333 284.149 76.376 284.32 76.376C284.576 76.376 284.789 76.376 284.96 76.376L286.112 76.76L287.264 77.4L288.416 77.528C288.416 77.528 288.757 77.6987 289.44 78.04C290.208 78.296 290.976 78.552 291.744 78.808C292.597 79.064 293.067 79.2347 293.152 79.32L293.92 80.088L294.048 79.96L294.944 80.472C295.883 81.0693 296.821 82.2213 297.76 83.928C298.784 85.5493 299.296 87.3413 299.296 89.304C299.296 90.584 299.083 91.864 298.656 93.144C298.315 94.3387 297.888 95.32 297.376 96.088C296.096 97.7947 294.688 99.3307 293.152 100.696C291.701 102.061 290.379 103.213 289.184 104.152C288.757 104.408 288.459 104.621 288.288 104.792C288.117 104.963 287.861 105.048 287.52 105.048C287.264 105.133 287.051 105.261 286.88 105.432C285.685 106.115 284.363 106.712 282.912 107.224C281.461 107.821 280.181 108.376 279.072 108.888C278.56 109.059 278.133 109.144 277.792 109.144C277.451 109.229 277.109 109.315 276.768 109.4C276.683 109.4 276.512 109.443 276.256 109.528C276.085 109.699 276 109.741 276 109.656L275.104 110.296C275.019 110.211 274.891 110.168 274.72 110.168C274.379 110.168 273.995 110.339 273.568 110.68C273.227 111.021 272.885 111.149 272.544 111.064H272.416C272.16 111.064 271.819 111.107 271.392 111.192C271.051 111.363 270.795 111.363 270.624 111.192L268.96 111.832L268.704 111.192C268.619 111.192 268.491 111.277 268.32 111.448C268.235 111.704 268.107 111.832 267.936 111.832C267.936 111.832 267.765 111.747 267.424 111.576C267.083 111.405 266.827 111.491 266.656 111.832L265.248 112.216C265.163 111.875 264.907 111.704 264.48 111.704C264.139 111.704 263.84 111.832 263.584 112.088L262.56 111.576V111.704L261.536 111.576L260.512 112.216ZM311.064 104.152C309.187 104.152 307.523 103.64 306.072 102.616C304.707 101.507 304.024 99.6293 304.024 96.984C304.024 96.0453 304.195 94.7227 304.536 93.016C304.877 91.3093 305.432 89.5173 306.2 87.64C306.627 86.616 307.096 85.6347 307.608 84.696C308.205 83.7573 308.76 82.8613 309.272 82.008C309.357 81.9227 309.613 82.008 310.04 82.264C310.552 82.52 310.851 82.6053 310.936 82.52C311.021 82.3493 310.893 82.1787 310.552 82.008C310.296 81.752 310.211 81.5813 310.296 81.496C310.467 81.3253 310.595 81.24 310.68 81.24C310.851 81.1547 310.979 81.0267 311.064 80.856C311.149 80.6853 311.192 80.5147 311.192 80.344C311.192 80.088 311.064 79.8747 310.808 79.704C310.637 79.5333 310.723 79.2773 311.064 78.936C311.491 78.3387 311.96 77.784 312.472 77.272C313.069 76.6747 313.581 76.1627 314.008 75.736C314.179 75.5653 314.392 75.3093 314.648 74.968C314.904 74.5413 315.075 74.2853 315.16 74.2L315.416 73.944C315.501 73.8587 315.587 73.7733 315.672 73.688C315.672 73.6027 315.672 73.56 315.672 73.56C315.757 73.56 315.8 73.5173 315.8 73.432C315.8 73.176 315.544 72.92 315.032 72.664C314.52 72.408 314.264 72.2373 314.264 72.152C314.264 72.0667 314.221 71.9813 314.136 71.896C314.051 71.8107 313.965 71.6827 313.88 71.512C313.965 71.512 314.051 71.4267 314.136 71.256C314.307 71 314.435 70.872 314.52 70.872C314.605 70.872 314.776 70.9573 315.032 71.128C315.288 71.2133 315.459 71.256 315.544 71.256C315.629 71.256 315.672 71.2133 315.672 71.128C315.757 71.0427 315.843 71 315.928 71C316.099 71 316.483 71.128 317.08 71.384C317.677 71.5547 318.019 71.64 318.104 71.64C318.189 71.64 318.445 71.4267 318.872 71C319.299 70.5733 319.555 70.3173 319.64 70.232C319.811 70.0613 319.939 69.8907 320.024 69.72C320.109 69.464 320.323 69.1653 320.664 68.824H320.792C320.877 68.7387 320.92 68.6533 320.92 68.568C320.92 68.4827 320.92 68.44 320.92 68.44C321.091 68.2693 321.219 68.1413 321.304 68.056C321.475 67.8853 321.603 67.7573 321.688 67.672C321.773 67.5867 321.816 67.544 321.816 67.544C321.901 67.544 321.944 67.544 321.944 67.544C322.029 67.3733 322.115 67.2453 322.2 67.16C322.371 67.0747 322.499 66.9893 322.584 66.904L322.84 66.392C323.011 66.2213 323.608 65.8373 324.632 65.24C325.656 64.6427 326.424 64.344 326.936 64.344H327.576C327.576 64.344 327.576 64.3867 327.576 64.472C327.576 64.472 327.619 64.472 327.704 64.472C327.789 64.472 327.875 64.472 327.96 64.472C328.045 64.3867 328.131 64.344 328.216 64.344C328.216 64.344 328.344 64.472 328.6 64.728C328.685 64.8133 328.771 64.856 328.856 64.856C328.941 64.7707 329.027 64.728 329.112 64.728C329.197 64.8133 329.24 64.8987 329.24 64.984C329.24 65.0693 329.283 65.112 329.368 65.112C329.539 65.112 329.581 65.112 329.496 65.112C329.496 65.0267 329.539 64.984 329.624 64.984C329.709 64.984 329.752 65.0693 329.752 65.24C329.752 65.4107 329.795 65.5813 329.88 65.752C329.795 66.008 329.709 66.3067 329.624 66.648C329.624 66.904 329.581 67.1173 329.496 67.288C328.728 68.312 328.131 68.824 327.704 68.824C327.704 68.9093 327.576 69.08 327.32 69.336C327.064 69.336 326.765 69.4213 326.424 69.592C326.083 69.7627 325.741 69.9333 325.4 70.104V70.488C325.4 70.8293 325.272 71 325.016 71C324.845 70.9147 324.675 71.0427 324.504 71.384V71.512C324.675 71.768 324.973 71.896 325.4 71.896L326.296 72.024C326.467 72.024 326.552 71.9813 326.552 71.896C326.637 71.8107 326.723 71.768 326.808 71.768C326.893 71.768 326.936 71.8107 326.936 71.896C326.936 71.896 326.979 71.896 327.064 71.896C327.235 71.896 327.363 71.8533 327.448 71.768C327.533 71.6827 327.619 71.64 327.704 71.64L328.856 71.768C328.6 71.3413 328.472 71 328.472 70.744C328.472 70.3173 328.856 70.0613 329.624 69.976C330.819 69.976 331.843 70.4027 332.696 71.256C332.867 71.1707 333.08 71.1707 333.336 71.256C333.592 71.3413 333.848 71.3413 334.104 71.256L334.744 70.872L334.872 71C335.213 70.8293 335.427 70.744 335.512 70.744C335.683 70.744 335.725 70.7867 335.64 70.872C335.64 70.872 335.683 70.872 335.768 70.872C335.768 70.872 335.853 70.7867 336.024 70.616C336.109 70.616 336.195 70.6587 336.28 70.744C336.451 70.744 336.579 70.7013 336.664 70.616L337.048 70.232H338.584L338.712 70.104C338.883 70.0187 339.096 69.9333 339.352 69.848C339.693 69.6773 339.992 69.592 340.248 69.592C340.248 69.5067 340.333 69.464 340.504 69.464C340.675 69.3787 340.803 69.336 340.888 69.336H341.144C341.571 69.336 341.784 69.464 341.784 69.72C341.784 69.976 341.656 70.1893 341.4 70.36C341.315 70.4453 341.187 70.488 341.016 70.488C340.845 70.4027 340.675 70.4027 340.504 70.488C340.163 70.8293 339.907 71 339.736 71C339.651 71 339.608 71 339.608 71C339.608 70.9147 339.565 70.872 339.48 70.872C339.395 70.872 339.224 71 338.968 71.256L338.072 71.384H337.944C337.773 71.384 337.688 71.4693 337.688 71.64C337.347 71.64 337.005 71.6827 336.664 71.768C336.323 71.768 335.981 71.8107 335.64 71.896L335.512 72.024C335.427 72.024 335.341 72.0667 335.256 72.152C335.171 72.152 335.043 72.152 334.872 72.152C334.701 72.2373 334.232 72.28 333.464 72.28C333.976 72.9627 334.317 73.6027 334.488 74.2C334.659 74.6267 334.787 75.3093 334.872 76.248C335.043 77.1013 335.085 77.7413 335 78.168C335 78.424 334.915 78.5093 334.744 78.424C334.573 78.2533 334.488 78.2533 334.488 78.424C334.488 78.68 334.573 78.8507 334.744 78.936C335 78.936 335.128 79.1493 335.128 79.576C335.128 79.832 335.085 80.1733 335 80.6C334.915 80.9413 334.829 81.3253 334.744 81.752C334.659 82.264 334.531 82.8187 334.36 83.416C334.275 83.928 334.061 84.44 333.72 84.952L333.336 85.592V86.36C333.336 87.0427 333.123 87.512 332.696 87.768C332.355 88.024 332.099 88.3227 331.928 88.664C331.757 89.176 331.629 89.5173 331.544 89.688C331.544 89.8587 331.373 90.2 331.032 90.712C329.923 92.4187 328.6 94.04 327.064 95.576C325.528 97.112 324.035 98.52 322.584 99.8C321.304 100.909 319.555 101.933 317.336 102.872C315.203 103.725 313.112 104.152 311.064 104.152ZM312.344 101.848C312.6 101.848 313.112 101.805 313.88 101.72C314.648 101.549 315.459 101.165 316.312 100.568C316.483 100.483 316.653 100.525 316.824 100.696C316.995 100.867 317.165 100.909 317.336 100.824C317.763 100.653 317.933 100.525 317.848 100.44C317.763 100.355 317.891 100.269 318.232 100.184H318.36C318.872 100.184 319.085 100.141 319 100.056C319 99.8853 319.043 99.672 319.128 99.416C319.128 99.16 319.256 98.9467 319.512 98.776C319.768 98.6053 319.981 98.4773 320.152 98.392C321.091 97.624 322.243 96.344 323.608 94.552C324.973 92.6747 326.339 90.7973 327.704 88.92C327.789 88.7493 327.917 88.7067 328.088 88.792C328.259 88.8773 328.387 88.8773 328.472 88.792C328.557 88.7067 328.6 88.4507 328.6 88.024C328.6 87.768 328.728 87.384 328.984 86.872C329.24 86.2747 329.496 85.8053 329.752 85.464C329.837 85.208 330.008 84.7387 330.264 84.056C330.52 83.288 330.733 82.6053 330.904 82.008C331.16 81.3253 331.203 80.984 331.032 80.984C330.861 80.8987 330.776 80.8133 330.776 80.728C330.776 80.5573 331.032 80.3867 331.544 80.216C332.056 80.0453 332.013 79.9173 331.416 79.832C331.245 79.7467 331.288 79.576 331.544 79.32C331.8 79.064 331.672 78.8933 331.16 78.808C330.733 78.7227 330.563 78.5947 330.648 78.424C330.819 78.2533 330.947 78.1253 331.032 78.04C331.288 77.784 331.416 77.528 331.416 77.272C331.416 76.504 331.203 75.736 330.776 74.968C330.435 74.2 330.051 73.5173 329.624 72.92C329.112 73.2613 328.856 73.432 328.856 73.432C328.771 73.432 328.728 73.432 328.728 73.432C328.728 73.3467 328.643 73.304 328.472 73.304C328.387 73.304 328.344 73.304 328.344 73.304C328.344 73.2187 328.301 73.176 328.216 73.176C328.131 73.176 328.045 73.2187 327.96 73.304C327.875 73.3893 327.832 73.432 327.832 73.432C327.747 73.5173 327.576 73.56 327.32 73.56C327.149 73.56 327.021 73.56 326.936 73.56C326.851 73.56 326.765 73.5173 326.68 73.432C326.68 73.3467 326.637 73.304 326.552 73.304C326.467 73.304 326.339 73.3893 326.168 73.56C326.083 73.7307 325.955 73.816 325.784 73.816C325.699 73.816 325.656 73.7733 325.656 73.688C325.656 73.6027 325.571 73.56 325.4 73.56C325.315 73.56 325.229 73.6027 325.144 73.688C325.144 73.7733 325.101 73.816 325.016 73.816C324.931 73.816 324.76 73.688 324.504 73.432H324.376C324.376 73.944 324.248 74.2 323.992 74.2C323.907 74.2 323.779 74.1147 323.608 73.944C322.669 74.5413 321.091 75.9493 318.872 78.168C316.653 80.3013 314.691 82.776 312.984 85.592C312.643 86.2747 312.216 87.0853 311.704 88.024C311.277 88.9627 310.893 90.0293 310.552 91.224C310.467 91.736 310.211 92.12 309.784 92.376C309.443 92.632 309.187 92.9307 309.016 93.272C308.931 93.6133 308.973 93.8267 309.144 93.912C309.315 93.9973 309.443 94.1253 309.528 94.296C309.528 94.6373 309.443 95.1067 309.272 95.704C309.187 96.3013 309.144 96.856 309.144 97.368C309.144 98.9893 309.443 100.141 310.04 100.824C310.723 101.507 311.491 101.848 312.344 101.848ZM336.964 110.936C336.793 110.424 336.708 109.955 336.708 109.528C336.708 109.272 336.793 108.803 336.964 108.12C337.049 107.864 337.305 107.139 337.732 105.944C338.073 104.835 338.415 103.683 338.756 102.488C339.183 101.293 339.481 100.611 339.652 100.44C339.737 100.44 340.036 99.8 340.548 98.52C341.145 97.1547 341.785 95.7467 342.468 94.296C343.151 92.76 343.663 91.7787 344.004 91.352C344.431 90.4987 345.071 89.3467 345.924 87.896C346.777 86.4453 347.631 84.7813 348.484 82.904V82.392C348.484 81.7947 348.612 81.24 348.868 80.728C349.124 80.0453 349.423 79.6187 349.764 79.448C350.105 79.192 350.404 78.68 350.66 77.912C350.831 77.4853 350.959 77.016 351.044 76.504C351.215 75.9067 351.385 75.3947 351.556 74.968C350.617 75.3093 350.148 75.608 350.148 75.864C350.148 76.2053 349.679 76.5467 348.74 76.888C347.801 77.2293 347.247 77.4427 347.076 77.528L342.596 78.936C342.34 79.0213 342.084 78.8507 341.828 78.424C341.657 77.912 341.572 77.3573 341.572 76.76C341.572 75.9067 341.743 75.224 342.084 74.712C342.084 74.6267 342.169 74.584 342.34 74.584L345.028 73.816C345.625 73.6453 346.393 73.5173 347.332 73.432C348.271 73.2613 349.081 73.0053 349.764 72.664L353.476 72.152V71.512C353.476 71 353.647 70.5307 353.988 70.104C354.415 69.592 354.799 69.0373 355.14 68.44C355.311 68.0987 355.567 67.928 355.908 67.928H356.292C356.463 67.928 356.548 67.7147 356.548 67.288C356.548 67.1173 356.548 66.9467 356.548 66.776C356.548 66.52 356.505 66.2213 356.42 65.88C356.42 65.1973 356.719 64.8133 357.316 64.728H357.7C357.956 63.6187 358.169 62.808 358.34 62.296C358.596 61.784 358.895 61.3573 359.236 61.016L360.26 59.992C361.369 58.8827 362.137 57.7307 362.564 56.536C362.735 56.1947 362.948 55.896 363.204 55.64C363.545 55.384 363.844 55.0853 364.1 54.744C364.271 54.5733 364.313 54.3173 364.228 53.976C364.228 53.6347 364.271 53.3787 364.356 53.208C365.039 52.184 365.849 51.16 366.788 50.136C367.727 49.0267 368.623 48.0453 369.476 47.192C369.732 46.7653 370.031 46.3387 370.372 45.912C370.713 45.4853 371.055 45.0587 371.396 44.632C371.908 44.0347 372.463 43.608 373.06 43.352C373.657 43.096 374.255 42.712 374.852 42.2C375.023 42.0293 375.108 41.7733 375.108 41.432C375.108 41.0053 375.193 40.7067 375.364 40.536C377.327 38.9147 379.417 37.5067 381.636 36.312C383.855 35.032 385.988 34.008 388.036 33.24C390.084 32.472 391.748 32.088 393.028 32.088C393.711 32.088 394.351 32.1307 394.948 32.216C395.545 32.3013 396.185 32.4293 396.868 32.6H397.124C397.551 32.6 397.935 32.6853 398.276 32.856C398.703 33.0267 399.087 33.1973 399.428 33.368C399.855 33.368 400.324 33.4533 400.836 33.624C401.263 33.7947 401.476 34.0507 401.476 34.392C401.561 34.7333 401.519 34.9893 401.348 35.16C401.263 35.2453 401.092 35.2453 400.836 35.16C400.665 35.0747 400.495 35.032 400.324 35.032C400.153 35.032 399.983 34.9467 399.812 34.776C399.641 34.6053 399.471 34.4773 399.3 34.392C399.044 34.392 398.745 34.4347 398.404 34.52C398.063 34.6053 397.721 34.648 397.38 34.648C396.441 34.648 395.844 34.5627 395.588 34.392C395.417 34.136 394.948 34.0933 394.18 34.264C394.009 34.264 393.711 34.3067 393.284 34.392C392.857 34.4773 392.559 34.52 392.388 34.52C389.316 35.288 386.628 36.568 384.324 38.36C382.105 40.0667 380.1 41.9867 378.308 44.12C376.516 46.2533 374.809 48.3013 373.188 50.264C372.847 51.032 372.463 51.7573 372.036 52.44C371.695 53.0373 371.311 53.5493 370.884 53.976C370.799 54.0613 370.713 54.0187 370.628 53.848C370.628 53.6773 370.543 53.6773 370.372 53.848C370.201 54.104 370.031 54.5307 369.86 55.128C369.689 55.64 369.519 56.0667 369.348 56.408C369.263 56.4933 369.135 56.4507 368.964 56.28C368.879 56.1093 368.751 56.1093 368.58 56.28C368.495 56.3653 368.409 56.7067 368.324 57.304C368.239 57.816 368.111 58.1573 367.94 58.328C366.831 59.6933 365.679 61.016 364.484 62.296C363.289 63.576 362.095 65.0693 360.9 66.776L357.956 71.256C358.297 71.256 358.596 71.256 358.852 71.256C359.193 71.256 359.492 71.2133 359.748 71.128C360.004 71.0427 360.089 71.0853 360.004 71.256C360.004 71.3413 360.132 71.3413 360.388 71.256C360.815 71.256 361.113 71.2133 361.284 71.128C361.455 70.9573 361.753 70.8293 362.18 70.744C362.863 70.6587 363.631 70.616 364.484 70.616C365.423 70.5307 366.148 70.488 366.66 70.488C367.001 70.488 367.428 70.488 367.94 70.488C368.452 70.488 368.836 70.5307 369.092 70.616C369.263 70.616 369.305 70.7013 369.22 70.872C369.22 70.9573 369.263 71 369.348 71C369.519 71 369.647 70.9573 369.732 70.872C369.903 70.7867 370.073 70.744 370.244 70.744C370.329 70.6587 370.457 70.6587 370.628 70.744C370.799 70.744 370.927 70.744 371.012 70.744L372.42 71.128C372.847 71.2133 373.103 71.4693 373.188 71.896C373.273 72.3227 373.145 72.536 372.804 72.536C372.548 72.536 372.335 72.4933 372.164 72.408C371.993 72.3227 371.823 72.28 371.652 72.28H368.452C367.855 72.28 367.3 72.28 366.788 72.28C366.276 72.28 365.764 72.3227 365.252 72.408C365.081 72.4933 364.996 72.408 364.996 72.152C365.081 71.896 365.039 71.768 364.868 71.768C364.783 71.768 364.655 71.896 364.484 72.152C364.313 72.3227 364.185 72.408 364.1 72.408L363.46 72.792C362.265 73.048 360.985 73.3467 359.62 73.688C358.34 73.944 357.06 74.2853 355.78 74.712L348.74 86.36C348.143 87.384 347.673 88.3227 347.332 89.176C347.076 89.944 346.777 90.6693 346.436 91.352C346.265 91.608 346.18 91.9493 346.18 92.376C346.18 93.0587 346.564 93.4 347.332 93.4C347.588 93.4 348.057 93.2293 348.74 92.888C349.081 92.7173 349.38 92.5893 349.636 92.504C349.977 92.4187 350.319 92.2907 350.66 92.12C350.745 92.12 351.257 91.8213 352.196 91.224C353.135 90.6267 354.116 89.9013 355.14 89.048L356.164 88.152L357.7 87C357.956 86.744 358.169 86.616 358.34 86.616C358.681 86.616 358.937 86.7867 359.108 87.128C359.279 87.4693 359.236 87.8107 358.98 88.152C358.809 88.408 358.511 88.6213 358.084 88.792C357.657 88.9627 357.231 89.2613 356.804 89.688C356.036 90.2853 355.183 90.9253 354.244 91.608C353.391 92.2053 352.537 92.76 351.684 93.272C351.343 93.528 350.959 93.784 350.532 94.04C350.191 94.296 349.849 94.5947 349.508 94.936L348.356 96.728C348.271 96.8987 348.143 96.984 347.972 96.984C347.887 96.8987 347.631 97.0267 347.204 97.368C347.119 97.4533 347.076 97.624 347.076 97.88C347.076 98.0507 346.991 98.2213 346.82 98.392C346.735 98.648 346.607 98.8613 346.436 99.032C346.265 99.1173 346.18 99.2453 346.18 99.416C346.095 99.672 345.924 99.8427 345.668 99.928C345.497 99.928 345.327 100.013 345.156 100.184C345.071 100.269 345.028 100.397 345.028 100.568C345.113 100.739 345.113 100.909 345.028 101.08L343.62 103.768C343.449 104.28 343.193 104.579 342.852 104.664C342.767 104.749 342.639 104.707 342.468 104.536C342.297 104.451 342.169 104.493 342.084 104.664C342.084 104.835 342.127 105.091 342.212 105.432C342.383 105.773 342.34 106.029 342.084 106.2C341.828 106.371 341.572 106.712 341.316 107.224C341.06 107.821 340.847 108.248 340.676 108.504C340.42 108.845 340.121 109.059 339.78 109.144C339.524 109.229 339.268 109.443 339.012 109.784C338.927 109.869 338.628 110.211 338.116 110.808C337.604 111.491 337.22 111.533 336.964 110.936ZM369.751 103.384C369.239 103.384 368.983 103.085 368.983 102.488C368.983 102.061 369.111 101.549 369.367 100.952C370.05 99.5013 370.818 97.4533 371.671 94.808C372.61 92.1627 373.762 89.9013 375.127 88.024L381.527 74.84C381.015 74.84 380.503 74.968 379.991 75.224C379.564 75.48 379.351 75.6933 379.351 75.864C379.351 76.2053 378.882 76.5467 377.943 76.888C377.004 77.2293 376.492 77.4427 376.407 77.528C375.127 77.8693 373.932 78.2533 372.823 78.68C371.97 79.6187 371.116 80.5573 370.263 81.496C369.495 82.4347 368.77 83.3733 368.087 84.312C368.002 84.3973 367.916 84.44 367.831 84.44C367.063 85.2933 366.423 85.9333 365.911 86.36C365.399 86.7867 364.844 87.1707 364.247 87.512C363.906 87.768 363.564 87.8533 363.223 87.768C362.796 87.5973 362.754 87.4267 363.095 87.256C363.522 87.0853 364.204 86.488 365.143 85.464C366.082 84.44 366.807 83.672 367.319 83.16C367.746 82.904 367.874 82.904 367.703 83.16C367.618 83.416 367.746 83.3733 368.087 83.032L371.287 78.936L371.415 78.808C370.988 78.552 370.775 77.8693 370.775 76.76C370.775 75.9067 370.946 75.224 371.287 74.712C371.287 74.6267 371.372 74.584 371.543 74.584L374.231 73.816C374.487 73.816 374.658 73.7733 374.743 73.688C374.914 73.5173 375.084 73.304 375.255 73.048C375.511 72.7067 375.81 72.28 376.151 71.768L377.687 69.72L378.711 68.312C378.711 68.056 378.882 67.7573 379.223 67.416C379.65 66.9893 379.991 66.6907 380.247 66.52C380.588 66.008 380.802 65.624 380.887 65.368C381.058 65.0267 381.314 64.6 381.655 64.088C381.655 64.0027 381.783 63.96 382.039 63.96C382.295 63.8747 382.423 63.7893 382.423 63.704C382.508 62.8507 382.636 62.4667 382.807 62.552C383.063 62.552 383.191 62.424 383.191 62.168C383.191 61.912 383.362 61.6987 383.703 61.528L384.343 60.76C384.343 60.6747 384.471 60.504 384.727 60.248V60.12C384.727 59.9493 384.727 59.736 384.727 59.48C384.727 59.224 384.812 58.968 384.983 58.712C385.154 58.5413 385.282 58.456 385.367 58.456C385.452 58.456 385.495 58.456 385.495 58.456C385.495 58.3707 385.452 58.328 385.367 58.328C385.367 58.2427 385.367 58.2 385.367 58.2C385.367 57.8587 385.538 57.6453 385.879 57.56C386.22 57.4747 386.391 57.3467 386.391 57.176C386.562 55.9813 387.586 55.0853 389.463 54.488C391.34 53.8907 393.004 53.592 394.455 53.592C395.906 53.592 396.631 53.8053 396.631 54.232C396.631 54.4027 396.375 54.7013 395.863 55.128C395.607 55.2133 395.18 55.5973 394.583 56.28C393.986 56.8773 393.431 57.6027 392.919 58.456L391.895 59.992C391.81 60.1627 391.682 60.376 391.511 60.632C391.426 60.8027 391.298 60.9733 391.127 61.144C390.53 62.168 389.719 63.6187 388.695 65.496C387.756 67.288 386.732 69.2933 385.623 71.512L388.951 71.128C389.207 71.128 389.292 71.1707 389.207 71.256C389.207 71.3413 389.335 71.3413 389.591 71.256C390.018 71.256 390.316 71.2133 390.487 71.128C390.658 70.9573 390.956 70.8293 391.383 70.744C392.066 70.6587 392.834 70.616 393.687 70.616C394.626 70.5307 395.351 70.488 395.863 70.488C396.204 70.488 396.631 70.488 397.143 70.488C397.655 70.488 398.039 70.5307 398.295 70.616C398.466 70.616 398.508 70.7013 398.423 70.872C398.423 70.9573 398.466 71 398.551 71C398.722 71 398.85 70.9573 398.935 70.872C399.106 70.7867 399.276 70.744 399.447 70.744C399.532 70.6587 399.66 70.6587 399.831 70.744C400.087 70.744 400.258 70.744 400.343 70.744L401.623 71.128C402.135 71.2133 402.391 71.512 402.391 72.024C402.476 72.536 402.263 72.7067 401.751 72.536C401.41 72.3653 401.111 72.28 400.855 72.28H397.655C397.058 72.28 396.503 72.28 395.991 72.28C395.479 72.28 394.967 72.3227 394.455 72.408C394.284 72.4933 394.199 72.408 394.199 72.152C394.284 71.896 394.242 71.768 394.071 71.768C393.986 71.768 393.858 71.896 393.687 72.152C393.516 72.3227 393.388 72.408 393.303 72.408L392.663 72.792C391.298 73.1333 389.847 73.5173 388.311 73.944C386.775 74.2853 385.282 74.6693 383.831 75.096C382.551 77.7413 381.314 80.2587 380.119 82.648C379.01 84.952 378.156 86.744 377.559 88.024C377.388 88.536 377.303 88.8347 377.303 88.92C377.303 89.6027 377.687 89.944 378.455 89.944C378.967 89.944 379.479 89.816 379.991 89.56L381.271 89.048C383.319 87.1707 385.452 85.592 387.671 84.312C387.756 84.312 387.799 84.312 387.799 84.312C387.884 84.2267 387.97 84.184 388.055 84.184C388.311 84.184 388.482 84.3547 388.567 84.696C388.652 84.952 388.567 85.1653 388.311 85.336C385.836 86.7013 383.532 88.4507 381.399 90.584C381.314 90.7547 381.228 90.9253 381.143 91.096C381.058 91.2667 380.93 91.4373 380.759 91.608C380.588 91.7787 380.332 92.0773 379.991 92.504C379.735 92.9307 379.607 93.1867 379.607 93.272C379.522 93.528 379.394 93.6133 379.223 93.528C379.138 93.4427 378.882 93.5707 378.455 93.912C378.37 93.9973 378.284 94.168 378.199 94.424C378.199 94.68 378.156 94.8933 378.071 95.064C377.9 95.32 377.73 95.5333 377.559 95.704C377.388 95.7893 377.303 95.8747 377.303 95.96C377.218 96.3013 377.047 96.5147 376.791 96.6C376.62 96.6 376.45 96.6853 376.279 96.856C376.194 96.856 376.151 96.8987 376.151 96.984C376.151 97.752 376.066 98.0933 375.895 98.008C375.724 97.9227 375.596 98.008 375.511 98.264C375.17 98.6053 374.914 98.776 374.743 98.776C374.231 98.9467 374.018 99.0747 374.103 99.16C374.274 99.2453 374.402 99.3307 374.487 99.416C374.658 99.416 374.53 99.544 374.103 99.8C373.932 99.8853 373.762 100.141 373.591 100.568C373.42 100.909 373.25 101.165 373.079 101.336C372.823 101.507 372.567 101.635 372.311 101.72C372.055 101.805 371.842 101.976 371.671 102.232C370.903 103 370.263 103.384 369.751 103.384ZM377.047 73.304C377.388 73.2187 377.687 73.1333 377.943 73.048C378.284 72.9627 378.626 72.8347 378.967 72.664L382.807 72.024C383.831 69.976 384.727 68.1413 385.495 66.52C386.263 64.8133 386.818 63.576 387.159 62.808C387.159 62.808 387.074 62.7653 386.903 62.68C386.818 62.5093 386.775 62.3387 386.775 62.168C386.604 62.0827 386.391 61.9547 386.135 61.784C385.964 61.6133 385.794 61.4853 385.623 61.4L384.471 62.552L383.063 64.472C383.063 64.5573 382.935 64.6427 382.679 64.728C382.508 64.728 382.423 64.7707 382.423 64.856C382.423 65.112 382.295 65.368 382.039 65.624C381.868 65.88 381.698 65.9653 381.527 65.88L381.015 67.16C381.015 67.416 380.887 67.6293 380.631 67.8L379.735 68.952C379.735 69.0373 379.692 69.1227 379.607 69.208C379.607 69.208 379.607 69.2933 379.607 69.464C379.522 69.6347 379.394 69.848 379.223 70.104C379.052 70.36 378.839 70.616 378.583 70.872C378.498 70.872 378.455 70.9147 378.455 71C378.455 71 378.412 71 378.327 71L377.943 71.768C377.602 71.9387 377.388 72.024 377.303 72.024L377.175 72.28C377.175 72.792 377.132 73.1333 377.047 73.304ZM424.351 104.28C422.986 104.28 421.791 103.896 420.767 103.128C419.828 102.445 419.06 101.549 418.463 100.44C418.463 100.355 418.506 100.269 418.591 100.184C418.762 100.013 418.804 99.8853 418.719 99.8C418.719 99.7147 418.634 99.7147 418.463 99.8C418.292 99.8 418.207 99.7573 418.207 99.672C417.951 99.16 417.738 98.5627 417.567 97.88C417.567 97.7093 417.61 97.5387 417.695 97.368C417.78 97.1973 417.78 97.0267 417.695 96.856C417.695 96.6853 417.652 96.5573 417.567 96.472C417.482 96.3013 417.439 96.1733 417.439 96.088C417.439 95.7467 417.652 95.6187 418.079 95.704C418.591 95.7893 418.804 95.7467 418.719 95.576C418.719 95.4053 418.463 95.32 417.951 95.32C417.439 95.2347 417.183 95.1067 417.183 94.936C417.098 92.7173 417.311 90.4133 417.823 88.024C418.42 85.5493 419.06 83.4587 419.743 81.752L420.639 79.576L422.943 78.424C422.858 78.2533 422.644 78.2107 422.303 78.296C421.962 78.296 421.834 78.04 421.919 77.528L420.127 78.68C419.615 78.936 419.231 78.808 418.975 78.296C419.658 77.6987 420.34 76.9733 421.023 76.12C421.791 75.2667 422.602 74.4133 423.455 73.56C423.54 73.3893 423.967 72.92 424.735 72.152C425.503 71.384 426.698 70.616 428.319 69.848C428.575 69.7627 428.788 69.72 428.959 69.72C429.215 69.6347 429.428 69.592 429.599 69.592C431.05 69.592 431.86 70.1893 432.031 71.384C432.116 71.4693 431.732 71.9387 430.879 72.792C430.111 73.56 429.258 74.6267 428.319 75.992C426.954 78.1253 425.674 80.6 424.479 83.416C423.284 86.1467 422.516 88.8347 422.175 91.48C422.09 91.5653 421.919 91.6507 421.663 91.736C421.407 91.736 421.279 91.8213 421.279 91.992C421.279 92.1627 421.407 92.2907 421.663 92.376C421.919 92.4613 422.004 92.5893 421.919 92.76L421.791 93.4C421.706 93.5707 421.706 93.784 421.791 94.04C421.962 94.2107 422.047 94.3813 422.047 94.552V94.68C422.047 96.472 422.516 98.0933 423.455 99.544C423.967 100.483 424.607 101.123 425.375 101.464C426.228 101.805 427.082 101.891 427.935 101.72C430.666 101.037 433.055 99.544 435.103 97.24C437.151 94.936 438.858 92.2907 440.223 89.304C441.674 86.232 442.74 83.2453 443.423 80.344C444.191 77.3573 444.575 74.9253 444.575 73.048C444.575 71 444.191 69.2933 443.423 67.928C442.74 66.5627 441.887 65.88 440.863 65.88C439.839 65.88 439.668 65.624 440.351 65.112C441.119 64.6 441.887 64.344 442.655 64.344C443.85 64.344 444.959 64.856 445.983 65.88C446.836 66.8187 447.476 67.928 447.903 69.208C448.33 70.488 448.586 71.4267 448.671 72.024C448.927 72.8773 448.97 73.944 448.799 75.224L448.543 77.656L448.671 77.784C448.671 77.784 448.586 77.784 448.415 77.784C448.244 77.6987 448.031 77.7413 447.775 77.912C447.69 77.9973 447.69 78.2107 447.775 78.552C447.86 78.808 447.818 78.9787 447.647 79.064L447.903 80.472C447.818 80.8133 447.519 80.9413 447.007 80.856C446.58 80.7707 446.282 80.8133 446.111 80.984V81.24C446.111 81.3253 446.196 81.368 446.367 81.368C446.538 81.368 446.708 81.368 446.879 81.368C447.135 81.368 447.306 81.496 447.391 81.752C447.391 81.9227 447.306 82.264 447.135 82.776C446.964 83.288 446.836 83.6293 446.751 83.8L446.239 85.208L445.471 85.464C445.642 85.72 445.684 85.848 445.599 85.848C445.599 85.848 445.514 86.0613 445.343 86.488C445.343 86.488 445.215 86.8293 444.959 87.512C444.703 88.1947 444.362 88.8347 443.935 89.432H443.679C443.594 89.432 443.423 89.5173 443.167 89.688C442.911 89.7733 442.612 90.072 442.271 90.584C441.93 91.096 441.93 91.352 442.271 91.352C442.612 91.352 442.698 91.3947 442.527 91.48C440.394 94.6373 438.004 97.2827 435.359 99.416C432.799 101.464 430.154 102.915 427.423 103.768C426.399 104.109 425.375 104.28 424.351 104.28ZM399.519 102.872C398.41 102.872 397.514 102.232 396.831 100.952C396.234 99.5867 396.106 98.5627 396.447 97.88C396.618 97.368 396.874 96.9413 397.215 96.6C397.386 96.4293 397.471 96.3867 397.471 96.472C397.556 96.472 397.642 96.4293 397.727 96.344C397.812 96.1733 397.812 96.0453 397.727 95.96C397.642 95.7893 397.599 95.6613 397.599 95.576C397.94 94.7227 398.282 93.784 398.623 92.76C399.05 91.736 399.391 90.7547 399.647 89.816L400.031 89.304C400.202 88.8773 400.287 88.4933 400.287 88.152C400.372 87.7253 400.458 87.3413 400.543 87C400.543 86.9147 400.628 86.9147 400.799 87C400.97 87 401.098 86.9573 401.183 86.872C401.354 86.4453 401.311 86.232 401.055 86.232C400.799 86.232 400.671 86.1893 400.671 86.104C400.842 85.4213 401.012 84.952 401.183 84.696C401.439 84.44 401.61 84.0133 401.695 83.416C401.78 83.3307 401.866 83.032 401.951 82.52C402.122 82.008 402.25 81.5813 402.335 81.24C402.335 81.3253 402.292 81.4107 402.207 81.496C402.207 81.5813 402.207 81.7093 402.207 81.88C402.207 82.5627 402.42 82.904 402.847 82.904C403.359 82.904 403.53 82.8613 403.359 82.776C403.188 82.6053 403.06 82.392 402.975 82.136C402.975 81.7093 403.103 81.368 403.359 81.112C403.444 81.0267 403.572 81.1973 403.743 81.624C403.999 81.9653 404.127 82.136 404.127 82.136C404.212 81.9653 404.255 81.752 404.255 81.496C404.34 81.24 404.298 81.0693 404.127 80.984C403.871 80.728 403.53 80.5573 403.103 80.472C402.676 80.3013 402.506 80.1307 402.591 79.96C402.591 79.704 402.634 79.448 402.719 79.192C402.89 79.0213 402.975 78.8507 402.975 78.68C403.06 78.5093 403.018 78.424 402.847 78.424C402.676 78.424 402.634 78.3813 402.719 78.296C402.719 77.9547 402.719 77.6133 402.719 77.272C402.804 76.9307 402.847 76.5893 402.847 76.248C402.847 75.48 402.591 74.7547 402.079 74.072C401.567 73.3893 400.799 73.048 399.775 73.048H399.647C399.647 73.048 399.562 73.1333 399.391 73.304H399.263C398.58 73.7307 397.855 74.1573 397.087 74.584C396.319 74.9253 395.679 75.1813 395.167 75.352L394.911 75.48C394.826 75.5653 394.698 75.608 394.527 75.608C394.186 75.608 393.93 75.4373 393.759 75.096C393.674 74.7547 393.802 74.5413 394.143 74.456C394.826 74.0293 395.551 73.688 396.319 73.432C397.172 73.176 397.94 72.792 398.623 72.28C398.964 71.768 399.434 71.4267 400.031 71.256C400.202 71.0853 400.33 71.0427 400.415 71.128C400.5 71.2133 400.586 71.256 400.671 71.256C401.098 71.256 401.354 71.128 401.439 70.872C401.61 70.5307 401.738 70.4453 401.823 70.616H403.103C404.98 70.616 406.346 71.384 407.199 72.92C408.052 74.3707 408.394 76.3333 408.223 78.808C408.223 78.8933 408.095 79.0213 407.839 79.192C407.583 79.2773 407.412 79.4053 407.327 79.576C407.327 79.6613 407.412 79.704 407.583 79.704C407.839 79.6187 408.01 79.6613 408.095 79.832C408.095 80.0027 408.052 80.3013 407.967 80.728C407.882 81.1547 407.839 81.4533 407.839 81.624C407.498 83.5013 406.9 85.464 406.047 87.512C405.279 89.4747 404.426 91.3947 403.487 93.272C403.231 93.272 403.06 93.4 402.975 93.656C402.89 93.912 402.762 94.04 402.591 94.04C402.335 94.04 402.079 93.9547 401.823 93.784C401.652 93.528 401.567 93.528 401.567 93.784V93.912C401.567 94.2533 401.695 94.4667 401.951 94.552C402.292 94.6373 402.506 94.7227 402.591 94.808C402.762 94.8933 402.932 94.936 403.103 94.936C403.274 94.936 403.402 94.8507 403.487 94.68C403.658 94.5093 403.828 94.3813 403.999 94.296C404.426 93.9547 404.98 93.4853 405.663 92.888C406.431 92.2053 407.071 91.608 407.583 91.096C408.18 90.584 408.479 90.328 408.479 90.328C408.308 90.1573 408.394 89.9867 408.735 89.816H408.863L409.375 89.176C409.46 88.7493 409.674 88.28 410.015 87.768C410.442 87.1707 410.826 86.872 411.167 86.872L411.551 86.232C411.551 86.4027 411.679 86.4453 411.935 86.36C412.02 86.36 412.02 86.2747 411.935 86.104C411.935 85.9333 411.978 85.848 412.063 85.848L412.703 84.952C412.703 84.7813 412.746 84.6107 412.831 84.44C412.916 84.2693 413.002 84.1413 413.087 84.056C412.831 83.8 412.916 83.672 413.343 83.672C413.514 83.5867 413.684 83.5867 413.855 83.672C414.111 83.7573 414.239 83.6293 414.239 83.288C414.154 83.032 414.154 82.776 414.239 82.52C414.41 82.264 414.623 82.1787 414.879 82.264L415.135 82.008C415.05 81.9227 415.135 81.7947 415.391 81.624C415.732 81.368 415.946 81.1973 416.031 81.112L416.799 80.216C417.482 79.704 417.866 79.448 417.951 79.448C418.122 79.448 418.207 79.5333 418.207 79.704C418.207 80.3013 417.908 80.8987 417.311 81.496C416.97 81.8373 416.671 82.264 416.415 82.776C416.33 82.8613 416.244 82.904 416.159 82.904C416.074 82.904 415.946 82.9467 415.775 83.032L415.391 83.928C415.135 84.184 414.836 84.568 414.495 85.08L407.967 93.016C407.284 93.8693 406.815 94.424 406.559 94.68C406.388 94.8507 406.132 95.192 405.791 95.704C405.706 95.7893 405.578 95.7893 405.407 95.704C405.236 95.6187 405.066 95.6613 404.895 95.832C404.895 95.832 404.895 95.96 404.895 96.216C404.895 96.3867 404.852 96.5147 404.767 96.6C404.767 96.6853 404.682 96.7707 404.511 96.856C404.34 96.9413 404.255 97.0693 404.255 97.24C404.17 97.3253 404.212 97.368 404.383 97.368C404.639 97.368 404.724 97.4107 404.639 97.496C404.554 97.8373 404.255 98.3067 403.743 98.904C403.316 99.5013 402.975 100.013 402.719 100.44C402.122 101.293 401.524 101.933 400.927 102.36C400.415 102.701 399.946 102.872 399.519 102.872ZM473.18 103.384C472.668 103.384 472.412 103.085 472.412 102.488C472.412 102.061 472.54 101.549 472.796 100.952C473.479 99.5013 474.247 97.4533 475.1 94.808C476.039 92.1627 477.191 89.9013 478.556 88.024C479.495 86.1467 480.348 84.312 481.116 82.52C481.969 80.6427 482.78 78.7653 483.548 76.888C483.548 76.888 483.463 76.8453 483.292 76.76C483.121 76.5893 483.036 76.4187 483.036 76.248C482.609 75.9067 482.097 75.4373 481.5 74.84C480.903 74.1573 480.86 73.4747 481.372 72.792C481.543 72.6213 481.628 72.536 481.628 72.536C481.713 72.536 481.756 72.536 481.756 72.536C481.756 72.4507 481.713 72.408 481.628 72.408C481.628 72.408 481.628 72.3653 481.628 72.28L481.5 72.152C481.415 72.152 481.329 72.152 481.244 72.152C481.244 72.0667 481.201 72.024 481.116 72.024C480.775 72.024 480.391 72.1093 479.964 72.28C479.537 72.3653 479.111 72.408 478.684 72.408C478.172 72.408 477.489 72.6213 476.636 73.048C475.783 73.3893 475.015 73.688 474.332 73.944C473.991 74.0293 473.777 74.072 473.692 74.072C473.692 73.9867 473.521 74.0293 473.18 74.2C473.095 74.2853 473.095 74.1573 473.18 73.816C473.351 73.3893 473.436 73.0907 473.436 72.92C473.436 72.8347 473.393 72.792 473.308 72.792C473.137 72.792 472.796 73.048 472.284 73.56C471.772 73.9867 471.431 74.2427 471.26 74.328C471.175 74.4133 471.132 74.5413 471.132 74.712C471.217 74.8827 471.26 75.0533 471.26 75.224C471.26 75.48 471.047 75.7787 470.62 76.12C470.193 76.376 469.895 76.5893 469.724 76.76C469.383 77.016 468.956 77.1867 468.444 77.272C468.017 77.272 467.591 77.4427 467.164 77.784C466.652 78.1253 466.396 78.3813 466.396 78.552C466.481 78.7227 466.225 79.0213 465.628 79.448C464.86 80.0453 463.793 80.9413 462.428 82.136C461.148 83.3307 460.167 84.3973 459.484 85.336C457.863 87.2987 456.369 89.56 455.004 92.12C453.724 94.68 453.084 96.6853 453.084 98.136C453.084 99.2453 453.553 99.8 454.492 99.8C454.663 99.8 454.833 99.8 455.004 99.8C455.175 99.7147 455.388 99.6293 455.644 99.544L458.972 97.624L459.74 97.496V97.368L460.252 97.752C460.337 97.6667 460.295 97.5387 460.124 97.368C460.039 97.112 460.039 96.984 460.124 96.984C460.209 96.984 460.252 97.0267 460.252 97.112C460.337 97.112 460.423 97.112 460.508 97.112L460.764 96.728C460.764 96.728 460.892 96.7707 461.148 96.856C461.489 96.856 461.745 96.7707 461.916 96.6C462.172 96.5147 462.215 96.3867 462.044 96.216C461.959 96.0453 461.831 95.9173 461.66 95.832L462.556 95.064C462.641 94.8933 462.983 94.7227 463.58 94.552C465.031 93.6133 466.225 92.504 467.164 91.224C468.188 89.8587 469.34 88.6213 470.62 87.512H470.748L472.284 85.976L472.156 85.592L473.82 83.672H474.076C474.161 83.5013 474.332 83.288 474.588 83.032C474.929 82.776 475.143 82.5627 475.228 82.392C475.399 82.3067 475.783 81.88 476.38 81.112C477.063 80.2587 477.703 79.576 478.3 79.064C478.983 78.552 479.367 78.296 479.452 78.296C479.537 78.296 479.58 78.3387 479.58 78.424C479.58 78.68 479.452 79.064 479.196 79.576C479.025 80.088 478.855 80.4293 478.684 80.6C478.087 81.5387 477.319 82.6053 476.38 83.8C475.441 84.9093 474.887 85.592 474.716 85.848C473.692 86.9573 472.455 88.4507 471.004 90.328C469.553 92.12 467.975 93.912 466.268 95.704C464.561 97.496 462.855 99.032 461.148 100.312C459.527 101.507 457.991 102.104 456.54 102.104C455.175 102.104 453.724 101.677 452.188 100.824C450.652 99.9707 449.884 98.3493 449.884 95.96C449.884 95.192 449.969 94.3387 450.14 93.4C450.396 92.376 450.78 91.3093 451.292 90.2C451.292 90.2 451.377 90.1147 451.548 89.944C451.719 89.688 451.847 89.6027 451.932 89.688C452.103 89.432 452.145 89.176 452.06 88.92C452.06 88.5787 452.06 88.3653 452.06 88.28L452.316 88.024C452.487 87.0853 453.127 86.232 454.236 85.464C455.345 84.696 455.943 84.0987 456.028 83.672C456.113 83.5867 456.156 83.4587 456.156 83.288L456.668 81.624V81.112H457.18L457.564 80.6L457.692 80.344C457.521 80.2587 457.564 80.1307 457.82 79.96C458.161 79.704 458.332 79.576 458.332 79.576C458.417 79.4053 458.503 79.2773 458.588 79.192C458.759 79.1067 458.887 79.0213 458.972 78.936H459.868C460.039 78.68 459.953 78.552 459.612 78.552C459.271 78.552 459.1 78.552 459.1 78.552C459.1 78.4667 459.1 78.424 459.1 78.424C459.185 78.3387 459.228 78.2533 459.228 78.168L460.636 77.016C461.063 76.6747 461.489 76.376 461.916 76.12C462.343 75.864 462.727 75.5653 463.068 75.224C463.324 75.224 463.367 75.352 463.196 75.608C463.281 75.7787 463.367 75.7787 463.452 75.608C463.623 75.4373 463.708 75.352 463.708 75.352L464.348 75.224V75.096C464.348 74.9253 464.391 74.6693 464.476 74.328C464.561 73.9867 464.604 73.7733 464.604 73.688C466.396 72.3227 468.273 71.128 470.236 70.104C472.199 68.9947 474.119 68.44 475.996 68.44C478.215 68.44 480.22 69.2933 482.012 71L482.652 71.384C482.737 71.384 482.78 71.3413 482.78 71.256C482.951 70.0613 483.932 69.1653 485.724 68.568C487.601 67.9707 489.265 67.672 490.716 67.672C492.252 67.672 493.02 67.8853 493.02 68.312C493.02 68.4827 492.764 68.7813 492.252 69.208C491.996 69.3787 491.569 69.7627 490.972 70.36C490.375 70.9573 489.777 71.6827 489.18 72.536C489.095 72.792 488.967 73.048 488.796 73.304C488.625 73.56 488.455 73.816 488.284 74.072C488.199 74.2427 488.071 74.456 487.9 74.712C487.815 74.8827 487.687 75.0533 487.516 75.224C486.065 77.6987 484.913 79.7893 484.06 81.496C483.207 83.2027 482.183 85.3787 480.988 88.024C480.817 88.536 480.732 88.8347 480.732 88.92C480.732 89.6027 481.116 89.944 481.884 89.944C482.396 89.944 482.908 89.816 483.42 89.56L484.7 89.048C486.748 87.1707 488.881 85.592 491.1 84.312C491.185 84.312 491.228 84.312 491.228 84.312C491.313 84.2267 491.399 84.184 491.484 84.184C491.74 84.184 491.911 84.3547 491.996 84.696C492.081 84.952 491.996 85.1653 491.74 85.336C489.265 86.7013 486.961 88.4507 484.828 90.584C484.743 90.7547 484.657 90.9253 484.572 91.096C484.487 91.2667 484.359 91.4373 484.188 91.608C483.932 91.7787 483.676 92.0773 483.42 92.504C483.164 92.9307 483.036 93.1867 483.036 93.272C482.951 93.528 482.823 93.6133 482.652 93.528C482.567 93.4427 482.311 93.5707 481.884 93.912C481.799 93.9973 481.713 94.168 481.628 94.424C481.628 94.68 481.585 94.8933 481.5 95.064C481.329 95.32 481.159 95.5333 480.988 95.704C480.817 95.7893 480.732 95.8747 480.732 95.96C480.647 96.3013 480.476 96.5147 480.22 96.6C480.049 96.6 479.879 96.6853 479.708 96.856C479.623 96.856 479.58 96.8987 479.58 96.984C479.58 97.752 479.495 98.0933 479.324 98.008C479.153 97.9227 478.983 98.008 478.812 98.264C478.641 98.6053 478.428 98.776 478.172 98.776C477.66 98.9467 477.447 99.0747 477.532 99.16C477.703 99.2453 477.831 99.3307 477.916 99.416C478.087 99.416 477.959 99.544 477.532 99.8C477.361 99.8853 477.191 100.141 477.02 100.568C476.849 100.909 476.679 101.165 476.508 101.336C476.252 101.507 475.996 101.635 475.74 101.72C475.484 101.805 475.271 101.976 475.1 102.232C474.332 103 473.692 103.384 473.18 103.384ZM495.254 102.744C494.401 102.744 493.505 102.573 492.566 102.232C491.627 101.805 491.286 101.336 491.542 100.824C491.883 100.141 492.267 99.4587 492.694 98.776C493.206 98.008 493.675 97.1973 494.102 96.344L495.51 93.656C495.681 93.2293 495.851 92.9307 496.022 92.76C496.278 92.504 496.491 92.2053 496.662 91.864C496.747 91.7787 496.79 91.5653 496.79 91.224C496.79 90.7973 496.961 90.328 497.302 89.816C497.729 89.2187 498.027 88.664 498.198 88.152C498.283 88.0667 498.369 88.3227 498.454 88.92C498.539 89.5173 498.753 89.4747 499.094 88.792C499.179 88.7067 499.137 88.5787 498.966 88.408C498.881 88.2373 498.838 88.0667 498.838 87.896C498.838 87.7253 498.881 87.64 498.966 87.64C499.137 87.5547 499.222 87.4693 499.222 87.384C499.307 87.128 499.222 87.0427 498.966 87.128C498.795 87.128 498.71 87.0853 498.71 87C498.881 86.744 499.051 86.5733 499.222 86.488C499.478 86.4027 499.649 86.2747 499.734 86.104C499.734 85.9333 499.649 85.848 499.478 85.848C499.393 85.7627 499.393 85.6773 499.478 85.592C499.905 84.3973 500.374 82.9893 500.886 81.368C501.398 79.7467 501.782 78.2533 502.038 76.888C502.038 76.888 501.953 76.8453 501.782 76.76C501.611 76.5893 501.526 76.4187 501.526 76.248L500.63 75.608C499.606 76.5467 498.497 77.3573 497.302 78.04C497.217 78.1253 497.046 78.168 496.79 78.168C496.449 78.168 496.235 77.9973 496.15 77.656C496.065 77.3147 496.193 77.016 496.534 76.76C496.961 76.504 497.302 76.3333 497.558 76.248C497.814 76.0773 498.113 75.8213 498.454 75.48C498.625 75.3093 498.71 75.1387 498.71 74.968C498.795 74.7973 498.881 74.6267 498.966 74.456L499.478 73.816C499.478 73.3893 499.563 73.048 499.734 72.792C499.905 72.6213 500.033 72.536 500.118 72.536C500.203 72.536 500.246 72.536 500.246 72.536V72.28C500.246 71.9387 500.374 71.7253 500.63 71.64C500.971 71.5547 501.142 71.4267 501.142 71.256C501.313 70.0613 502.337 69.1653 504.214 68.568C506.091 67.9707 507.755 67.672 509.206 67.672C510.657 67.672 511.382 67.8853 511.382 68.312C511.382 68.568 511.126 68.8667 510.614 69.208C510.358 69.3787 509.931 69.7627 509.334 70.36C508.737 70.9573 508.182 71.6827 507.67 72.536L506.774 74.072L505.878 75.224C505.281 76.5893 504.427 78.68 503.318 81.496C502.209 84.312 501.057 87.8533 499.862 92.12C500.118 91.7787 500.715 91.0533 501.654 89.944C502.593 88.8347 503.702 87.5547 504.982 86.104C506.262 84.6533 507.499 83.288 508.694 82.008C509.889 80.6427 510.87 79.576 511.638 78.808L512.278 78.424C512.449 78.2533 512.619 78.04 512.79 77.784C513.046 77.4427 513.259 77.1867 513.43 77.016C513.515 76.9307 513.558 77.1013 513.558 77.528C513.643 77.8693 513.729 77.9973 513.814 77.912C514.155 77.656 514.326 77.272 514.326 76.76C514.411 76.248 514.625 75.9067 514.966 75.736C515.905 74.968 517.185 73.9013 518.806 72.536C520.513 71.0853 522.262 70.232 524.054 69.976C524.225 69.8053 524.481 69.7627 524.822 69.848C525.249 69.848 525.547 69.8053 525.718 69.72C525.889 69.72 526.017 69.6773 526.102 69.592C526.187 69.5067 526.401 69.464 526.742 69.464C526.913 69.464 527.254 69.592 527.766 69.848C528.363 70.104 528.705 70.4453 528.79 70.872C529.302 71.2133 529.558 71.7253 529.558 72.408C529.558 73.6027 528.918 74.4987 527.638 75.096C527.211 75.5227 526.742 75.9493 526.23 76.376C525.718 76.7173 525.206 77.1013 524.694 77.528C524.523 77.6987 524.395 77.784 524.31 77.784C523.713 78.296 523.201 78.8507 522.774 79.448C522.347 80.0453 522.134 80.8133 522.134 81.752C522.134 81.8373 522.219 81.9653 522.39 82.136C522.561 82.2213 522.603 82.3067 522.518 82.392C522.774 82.648 523.158 82.8187 523.67 82.904C524.182 82.904 524.694 82.904 525.206 82.904C526.059 82.904 527.339 82.5627 529.046 81.88H529.302C529.387 81.88 529.43 81.9227 529.43 82.008C529.43 82.1787 529.259 82.4773 528.918 82.904C528.577 83.2453 528.193 83.5013 527.766 83.672C526.827 84.0133 525.846 84.2267 524.822 84.312C523.798 84.312 523.073 84.312 522.646 84.312C521.11 84.312 520.129 84.0133 519.702 83.416C519.361 82.8187 519.019 82.0933 518.678 81.24V80.6L519.318 79.96C519.233 79.704 519.105 79.448 518.934 79.192C518.763 78.936 518.678 78.6373 518.678 78.296C518.678 77.4427 519.019 76.4613 519.702 75.352C518.763 75.608 517.569 76.3333 516.118 77.528C514.753 78.6373 513.345 79.96 511.894 81.496C510.443 82.9467 509.121 84.3973 507.926 85.848C506.731 87.2133 505.793 88.3227 505.11 89.176C504.854 89.5173 504.555 89.7307 504.214 89.816C503.958 89.816 503.745 89.944 503.574 90.2C503.489 90.2853 503.574 90.328 503.83 90.328C504.171 90.328 504.299 90.3707 504.214 90.456C503.105 92.1627 501.91 94.04 500.63 96.088C499.435 98.136 498.241 100.141 497.046 102.104C496.79 102.531 496.193 102.744 495.254 102.744ZM535.561 103.256C533.428 103.256 531.55 102.659 529.929 101.464C528.308 100.269 527.497 98.2213 527.497 95.32C527.497 94.2107 527.625 93.1013 527.881 91.992C528.137 90.7973 528.436 89.6453 528.777 88.536C528.948 87.4267 529.204 86.4453 529.545 85.592C529.63 85.2507 529.673 85.08 529.673 85.08C529.758 84.9947 529.972 84.8667 530.313 84.696L531.337 83.16V82.648C531.252 82.648 531.209 82.648 531.209 82.648C531.209 82.5627 531.209 82.52 531.209 82.52C531.209 82.264 531.422 81.9653 531.849 81.624C532.276 81.2827 532.489 81.112 532.489 81.112C532.574 80.6853 532.702 80.472 532.873 80.472C533.044 80.472 533.257 80.344 533.513 80.088H534.921V79.832C534.921 79.4053 534.708 79.2347 534.281 79.32C533.94 79.32 533.769 79.2773 533.769 79.192C533.769 79.1067 533.897 78.936 534.153 78.68C534.494 78.3387 534.708 78.1253 534.793 78.04C535.049 77.6987 535.262 77.4 535.433 77.144C535.604 76.8027 535.86 76.5467 536.201 76.376C537.737 74.4987 538.676 73.304 539.017 72.792C539.444 72.28 539.87 71.896 540.297 71.64C540.468 71.64 540.596 71.7253 540.681 71.896C540.852 71.9813 540.852 72.1093 540.681 72.28C540.852 72.536 540.98 72.5787 541.065 72.408C541.236 72.2373 541.321 72.152 541.321 72.152L541.833 71.896C541.662 71.7253 541.577 71.512 541.577 71.256C541.577 70.8293 541.662 70.488 541.833 70.232C542.004 69.8907 542.302 69.5493 542.729 69.208C543.241 68.8667 543.497 68.6533 543.497 68.568C544.009 68.3973 544.393 68.2267 544.649 68.056C544.99 67.8853 545.332 67.8 545.673 67.8C546.27 67.8 546.868 68.0133 547.465 68.44C549.086 69.2933 550.452 70.1467 551.561 71C552.67 71.8533 553.225 73.048 553.225 74.584C553.225 76.2053 552.542 77.6133 551.177 78.808C549.897 79.9173 548.318 80.856 546.441 81.624C544.564 82.392 542.686 83.032 540.809 83.544C539.017 83.9707 537.609 84.312 536.585 84.568C535.988 84.6533 535.689 84.9093 535.689 85.336C535.774 85.6773 535.732 86.0613 535.561 86.488L534.665 87.896L533.897 89.688L533.257 90.84C532.66 91.352 532.446 91.736 532.617 91.992C532.788 92.248 533.086 92.2053 533.513 91.864C533.598 91.9493 533.641 92.0773 533.641 92.248C533.641 92.5893 533.556 93.016 533.385 93.528C533.214 93.9547 533.086 94.296 533.001 94.552C532.916 94.8933 532.916 95.064 533.001 95.064C533.172 94.9787 533.257 95.1493 533.257 95.576L533.385 97.368C533.897 98.9893 535.049 99.928 536.841 100.184C537.012 100.184 537.182 100.227 537.353 100.312C537.609 100.312 537.822 100.312 537.993 100.312C539.529 100.312 540.34 100.184 540.425 99.928C540.596 99.672 540.809 99.5013 541.065 99.416C541.833 99.2453 542.473 99.0747 542.985 98.904C543.582 98.7333 544.18 98.4773 544.777 98.136C545.801 97.7093 546.782 97.1547 547.721 96.472C548.66 95.7893 549.641 95.1067 550.665 94.424L551.945 93.528C552.03 93.3573 552.03 93.2293 551.945 93.144C551.86 93.0587 551.86 92.9733 551.945 92.888C552.116 92.8027 552.244 92.8027 552.329 92.888C552.5 92.888 552.628 92.8453 552.713 92.76C552.884 92.6747 553.054 92.5467 553.225 92.376C553.396 92.12 553.566 91.9067 553.737 91.736C553.908 91.5653 553.993 91.3947 553.993 91.224C554.078 91.0533 554.206 90.8827 554.377 90.712C555.06 90.0293 555.742 89.304 556.425 88.536C557.193 87.768 557.833 87.0853 558.345 86.488C558.942 85.6347 559.412 85.208 559.753 85.208C559.924 85.208 560.009 85.2933 560.009 85.464C560.009 85.8907 559.71 86.5307 559.113 87.384C557.662 89.5173 555.998 91.608 554.121 93.656C552.244 95.6187 550.196 97.4107 547.977 99.032C546.356 100.141 544.436 101.123 542.217 101.976C539.998 102.829 537.78 103.256 535.561 103.256ZM537.481 82.648C538.761 82.5627 540.425 82.2213 542.473 81.624C544.521 80.9413 546.228 80.0453 547.593 78.936C549.044 77.7413 549.769 76.4187 549.769 74.968C549.769 73.6027 549.044 72.28 547.593 71C546.398 71.8533 545.076 73.0907 543.625 74.712C542.26 76.248 541.022 77.784 539.913 79.32C538.804 80.7707 537.993 81.88 537.481 82.648Z" fill="#3AC2DA"/>
</svg>
