<svg width="110" height="110" viewBox="0 0 110 110" fill="none" xmlns="http://www.w3.org/2000/svg">
<path d="M11.5816 55.8551C12.2539 56.5273 13.1461 56.9001 14.0994 56.9001C15.0528 56.9001 15.945 56.5273 16.6172 55.8551L16.6416 55.8307L23.8466 63.0357L23.2661 63.6162C21.2311 65.6512 21.2311 68.9634 23.2661 70.9984C23.8283 71.5607 24.4944 71.9701 25.2216 72.2268C25.0689 72.7218 24.9894 73.2412 24.9894 73.7729C24.9894 75.1662 25.5333 76.4801 26.5172 77.464C27.5011 78.4479 28.815 78.9918 30.2083 78.9918C30.74 78.9918 31.2594 78.9123 31.7544 78.7596C32.0111 79.4868 32.4205 80.1529 32.9828 80.7151C33.9666 81.699 35.2805 82.2429 36.6739 82.2429C36.8389 82.2429 36.9978 82.2368 37.1566 82.2184C37.3583 83.2023 37.8472 84.1068 38.5744 84.834C39.5583 85.8179 40.8722 86.3618 42.2655 86.3618C43.6589 86.3618 44.9728 85.8179 45.9566 84.834L48.8778 81.9129C49.1222 81.6684 49.3361 81.4057 49.5255 81.1246L54.3594 85.9584C55.4472 87.0462 56.9016 87.6512 58.4417 87.6512C59.9816 87.6512 61.4361 87.0523 62.5239 85.9584C63.3428 85.1396 63.8561 84.1312 64.0822 83.074C64.4672 83.1534 64.8644 83.1962 65.2617 83.1962C66.8017 83.1962 68.2561 82.5973 69.3439 81.5034C69.9794 80.8679 70.4316 80.1162 70.7066 79.3218C71.495 79.7129 72.3628 79.9207 73.2611 79.9207C74.8011 79.9207 76.2555 79.3218 77.3433 78.2279C79.1339 76.4373 79.4944 73.7484 78.4311 71.5912C79.2439 71.3101 79.9894 70.8518 80.6189 70.2284C81.7066 69.1346 82.3117 67.6862 82.3117 66.1462C82.3117 65.2907 82.1161 64.4596 81.7678 63.7018L92.0772 55.1462L92.7739 55.8429C93.4461 56.5151 94.3383 56.8879 95.2916 56.8879C96.245 56.8879 97.1372 56.5151 97.8094 55.8429L104.073 49.579C104.746 48.9068 105.118 48.0084 105.118 47.0612C105.118 46.1079 104.746 45.2157 104.073 44.5434L83.5217 23.9918C82.8494 23.3196 81.9572 22.9468 81.0039 22.9468C80.0505 22.9468 79.1583 23.3196 78.4861 23.9918L72.2222 30.2557C71.55 30.9279 71.1772 31.8201 71.1772 32.7734C71.1772 33.0729 71.22 33.3662 71.2872 33.6473L68.9161 36.0184L57.1094 32.144C56.3089 31.8812 55.4839 31.7468 54.6528 31.7468C53.4305 31.7468 52.2511 32.0279 51.145 32.5779L46.7633 34.7657H39.2344L38.11 33.6412C38.1833 33.3601 38.22 33.0668 38.22 32.7673C38.22 31.814 37.8472 30.9218 37.175 30.2496L30.9111 23.9979C30.2389 23.3257 29.3466 22.9529 28.3933 22.9529C27.44 22.9529 26.5478 23.3257 25.8755 23.9979L5.31776 44.5557C3.93054 45.9429 3.93054 48.204 5.31776 49.5912L11.5816 55.8551ZM54.6528 35.4073C55.0989 35.4073 55.5389 35.4807 55.9667 35.6151L69.9 40.1862L73.4994 36.5868L89.48 52.5673L79.3722 60.9579L57.4455 41.4084L46.6961 47.7946L46.3355 48.0879C45.3394 49.139 43.9339 49.744 42.4794 49.744C41.6178 49.744 40.7622 49.5301 40.0044 49.1268L38.605 48.3812L43.39 41.1701C43.7933 40.559 44.3555 40.064 45.0155 39.734L52.7705 35.8534C53.3633 35.5601 53.9989 35.4073 54.6528 35.4073ZM74.85 32.7857L80.9916 26.644L101.421 47.0796L95.2794 53.2212L74.85 32.7857ZM40.3528 39.1534L33.3372 49.7257L38.2933 52.3534C39.5705 53.0318 41.0189 53.3923 42.4733 53.3923C44.8383 53.3923 47.1422 52.4451 48.8044 50.7829L57.0117 45.9062L78.0522 64.6612C78.4433 65.0584 78.6633 65.584 78.6633 66.1462C78.6633 66.7146 78.4433 67.2462 78.04 67.6496C77.6428 68.0468 77.105 68.2668 76.5367 68.2668C75.9683 68.2668 75.4366 68.0468 75.0333 67.6496C74.9111 67.5273 74.7766 67.4357 74.6361 67.3562L69.2461 61.9662C68.9039 61.624 68.4455 61.4346 67.9566 61.4346C67.4678 61.4346 67.0094 61.624 66.6672 61.9662C65.9583 62.6751 65.9583 63.8362 66.6672 64.5451L74.7705 72.6484C75.1739 73.0518 75.3939 73.5834 75.3939 74.1518C75.3939 74.7201 75.1739 75.2518 74.7705 75.6551C74.3855 76.034 73.8417 76.254 73.2672 76.254C72.6928 76.254 72.1489 76.034 71.77 75.6551L63.6666 67.5518C63.3244 67.2095 62.8661 67.0201 62.3772 67.0201C61.8883 67.0201 61.43 67.2095 61.0878 67.5518C60.3789 68.2607 60.3789 69.4218 61.0878 70.1307L66.4839 75.5268C66.5633 75.6673 66.655 75.8079 66.7772 75.924C67.1805 76.3212 67.4005 76.859 67.4005 77.4273C67.4005 77.9957 67.1805 78.5273 66.7772 78.9307C66.3983 79.3096 65.8483 79.5296 65.2739 79.5296C64.6994 79.5296 64.1555 79.3096 63.7705 78.9307C63.5872 78.7473 63.3733 78.6129 63.135 78.5212C62.9516 78.2707 62.7561 78.0262 62.53 77.8001L57.3539 72.624C57.0117 72.2818 56.5533 72.0923 56.0644 72.0923C55.5755 72.0923 55.1172 72.2818 54.775 72.624C54.4328 72.9662 54.2433 73.4245 54.2433 73.9134C54.2433 74.4023 54.4328 74.8607 54.775 75.2029L59.9511 80.379C60.7761 81.2101 60.7761 82.5546 59.9511 83.3857C59.5478 83.789 59.0161 84.009 58.4478 84.009C57.8794 84.009 57.3478 83.789 56.9444 83.3857L50.1428 76.584C49.8922 75.8201 49.4644 75.1173 48.8839 74.5307C48.1567 73.8034 47.2522 73.3207 46.2622 73.1129C46.4028 71.6218 45.9016 70.0757 44.7589 68.939C44.105 68.2851 43.2555 67.8329 42.3266 67.6129C42.3694 67.3501 42.3939 67.0812 42.3939 66.8062C42.3939 65.4129 41.85 64.099 40.8661 63.1151C39.925 62.174 38.5805 61.6301 37.175 61.6301C36.2766 61.6301 35.4028 61.8562 34.645 62.2596C34.3944 61.6912 34.04 61.1596 33.5755 60.689C32.5916 59.7051 31.2778 59.1612 29.8844 59.1612C28.6011 59.1612 27.3911 59.6257 26.4378 60.4629L19.2205 53.2457L35.8855 36.5868L37.725 38.4262H40.9028C40.7072 38.6646 40.5178 38.9029 40.3528 39.1534ZM42.2655 82.6951C41.8378 82.6951 41.4344 82.5362 41.1533 82.2551C40.5422 81.644 40.5422 80.6479 41.1533 80.0307L44.0744 77.1095C44.3739 76.8101 44.765 76.6512 45.1867 76.6512C45.6083 76.6512 45.9994 76.8162 46.2989 77.1095C46.91 77.7207 46.91 78.7168 46.2989 79.334L43.3778 82.2551C43.0966 82.5362 42.6933 82.6951 42.2655 82.6951ZM25.8511 66.1951L28.7722 63.274C29.0716 62.9807 29.4628 62.8157 29.8844 62.8157C30.3061 62.8157 30.7033 62.9807 30.9966 63.274C31.6078 63.8851 31.6078 64.8812 30.9966 65.4984L28.0755 68.4196C27.7822 68.719 27.385 68.8779 26.9633 68.8779C26.5416 68.8779 26.1505 68.7129 25.8511 68.4196C25.24 67.8084 25.24 66.8123 25.8511 66.1951ZM29.1022 74.8851C28.8028 74.5918 28.6439 74.1946 28.6439 73.7729C28.6439 73.3512 28.8089 72.9601 29.1022 72.6607L36.0689 65.694C36.3683 65.3946 36.7594 65.2357 37.1811 65.2357C37.6028 65.2357 37.9939 65.4007 38.2933 65.694C38.5866 65.9873 38.7516 66.3846 38.7516 66.8062C38.7516 67.2279 38.5866 67.619 38.2933 67.9184L31.3266 74.8851C31.0455 75.1662 30.6422 75.3251 30.2144 75.3251C29.7866 75.3251 29.3833 75.1662 29.1022 74.8851ZM35.5678 75.9118L39.9616 71.5179C40.2611 71.2184 40.6522 71.0596 41.0739 71.0596C41.4955 71.0596 41.8866 71.2246 42.1861 71.5179C42.7972 72.129 42.7972 73.1312 42.1861 73.7423L37.7922 78.1362C37.5111 78.4173 37.1078 78.5762 36.68 78.5762C36.2522 78.5762 35.8489 78.4173 35.5678 78.1362C35.2683 77.8368 35.1094 77.4457 35.1094 77.024C35.1033 76.6023 35.2683 76.2112 35.5678 75.9118ZM14.1055 53.2151L7.95776 47.0734L28.3933 26.6379L34.535 32.7796L14.1055 53.2151Z" fill="#090909"/>
<path d="M23.6576 34.5152C22.9488 35.2241 22.9488 36.3852 23.6576 37.0941C23.9999 37.4363 24.4582 37.6258 24.9471 37.6258C25.436 37.6258 25.8943 37.4363 26.2365 37.0941L29.7138 33.6169C30.4226 32.908 30.4226 31.7469 29.7138 31.038C29.3715 30.6958 28.9132 30.5063 28.4243 30.5063C27.9354 30.5063 27.4771 30.6958 27.1349 31.038L23.6576 34.5152Z" fill="#090909"/>
<path d="M82.2502 31.038C81.908 30.6958 81.4496 30.5063 80.9608 30.5063C80.4719 30.5063 80.0135 30.6958 79.6713 31.038C78.9624 31.7469 78.9624 32.908 79.6713 33.6169L83.1485 37.0941C83.4908 37.4363 83.9491 37.6258 84.438 37.6258C84.9269 37.6258 85.3852 37.4363 85.7274 37.0941C86.4363 36.3852 86.4363 35.2241 85.7274 34.5152L82.2502 31.038Z" fill="#090909"/>
<path d="M12.6384 30.9037C12.9317 31.087 13.2678 31.1848 13.6101 31.1848C14.2395 31.1848 14.8201 30.867 15.1562 30.3353C23.7973 16.6831 38.5801 8.53089 54.6951 8.53089C70.8162 8.53089 85.5928 16.6831 94.234 30.3353C94.5701 30.867 95.1445 31.1848 95.774 31.1848C96.1162 31.1848 96.4584 31.087 96.7456 30.9037C97.1551 30.6409 97.4423 30.2376 97.5462 29.7609C97.6562 29.2842 97.5706 28.7953 97.3079 28.3859C88.0006 13.6703 72.069 4.88867 54.6951 4.88867C37.3212 4.88867 21.3834 13.6764 12.0762 28.3859C11.8134 28.7953 11.7278 29.2842 11.8378 29.7609C11.9417 30.2376 12.2228 30.6409 12.6384 30.9037Z" fill="#090909"/>
<path d="M103.236 57.9148C103.193 57.9087 103.144 57.9087 103.102 57.9087C102.136 57.9087 101.348 58.6237 101.262 59.5648C99.0682 83.7954 79.0543 102.068 54.6954 102.068C30.3365 102.068 10.3226 83.7954 8.12874 59.5648C8.04319 58.6359 7.23652 57.9087 6.28319 57.9087C6.24041 57.9087 6.19763 57.9087 6.14263 57.9148C5.65985 57.9576 5.21985 58.1898 4.90819 58.5626C4.59652 58.9354 4.44985 59.412 4.49263 59.8948C6.85152 86.0198 28.436 105.716 54.6893 105.716C80.9426 105.716 102.527 86.0137 104.892 59.8948C104.935 59.412 104.788 58.9354 104.477 58.5626C104.165 58.1898 103.725 57.9576 103.236 57.9148Z" fill="#090909"/>
</svg>
