<svg width="110" height="110" viewBox="0 0 110 110" fill="none" xmlns="http://www.w3.org/2000/svg">
<path d="M103.246 66.7322L86.9166 44.5669V40.6665L88.5604 39.0227C92.5238 35.0593 92.5238 28.6102 88.5604 24.641C88.0621 24.1427 87.5008 23.7246 86.9223 23.3409V17.035C86.9223 16.0556 86.1319 15.2652 85.1525 15.2652H65.3355L58.0158 5.328C57.4373 4.54334 56.3319 4.37152 55.5415 4.95572L41.5435 15.2652H24.1607C23.187 15.2652 22.3909 16.0556 22.3909 17.035V29.3777L6.43988 41.1304C6.06186 41.4111 5.80985 41.8235 5.74112 42.2874C5.67239 42.7513 5.78695 43.2267 6.06759 43.599L22.3966 65.7643V93.2962C22.3966 94.2756 23.187 95.066 24.1664 95.066H43.9777L51.2974 105.003C51.8816 105.794 52.987 105.954 53.7717 105.375L67.7696 95.066H85.1582C86.1319 95.066 86.928 94.2756 86.928 93.2962V80.9535L102.879 69.2008C103.658 68.6223 103.824 67.5169 103.246 66.7322ZM86.9166 35.466V28.2035C88.3542 30.4029 88.3542 33.2666 86.9166 35.466ZM56.2173 8.8504L60.9425 15.2652H47.5058L56.2173 8.8504ZM9.95654 42.9231L22.3909 33.7649V59.802L9.95654 42.9231ZM53.0901 101.481L48.365 95.066H61.8016L53.0901 101.481ZM25.9247 91.5264V18.799H83.3827V39.2003L71.1603 51.4227C69.7055 52.8775 67.3286 52.8775 65.8738 51.4227C64.4191 49.9679 64.4191 47.591 65.8738 46.1362L77.6209 34.3949C78.0104 34.0054 78.6862 34.0054 79.0757 34.3949C79.4766 34.7958 79.4823 35.443 79.0757 35.8497L68.3997 46.5257C67.7066 47.2187 67.7066 48.3356 68.3997 49.0229C69.0927 49.7159 70.2095 49.7159 70.8968 49.0229L81.5728 38.3469C83.3541 36.5656 83.3598 33.6733 81.5728 31.892C79.8489 30.168 76.842 30.168 75.118 31.892L63.3767 43.6333C60.5416 46.4684 60.5416 51.0848 63.3767 53.9199C66.2175 56.755 70.8281 56.755 73.6632 53.9199L83.3884 44.1946V91.5207H25.9247V91.5264ZM86.9166 76.5663V50.5292L99.3509 67.4081L86.9166 76.5663Z" fill="#090909"/>
<path d="M32.843 33.7134H56.5147C57.4883 33.7134 58.2845 32.923 58.2845 31.9436C58.2845 30.9642 57.4941 30.1738 56.5147 30.1738H32.843C31.8694 30.1738 31.0732 30.9642 31.0732 31.9436C31.0732 32.923 31.8694 33.7134 32.843 33.7134Z" fill="#090909"/>
<path d="M32.843 49.1949H56.5147C57.4883 49.1949 58.2845 48.4045 58.2845 47.4251C58.2845 46.4457 57.4941 45.6553 56.5147 45.6553H32.843C31.8694 45.6553 31.0732 46.4457 31.0732 47.4251C31.0732 48.4045 31.8694 49.1949 32.843 49.1949Z" fill="#090909"/>
<path d="M76.389 61.1367H32.843C31.8694 61.1367 31.0732 61.9271 31.0732 62.9065C31.0732 63.8859 31.8636 64.6763 32.843 64.6763H76.389C77.3627 64.6763 78.1588 63.8859 78.1588 62.9065C78.1531 61.9271 77.3627 61.1367 76.389 61.1367Z" fill="#090909"/>
<path d="M76.389 76.6177H32.843C31.8694 76.6177 31.0732 77.4081 31.0732 78.3875C31.0732 79.3669 31.8636 80.1572 32.843 80.1572H76.389C77.3627 80.1572 78.1588 79.3669 78.1588 78.3875C78.1531 77.4081 77.3627 76.6177 76.389 76.6177Z" fill="#090909"/>
</svg>
