<svg width="110" height="110" viewBox="0 0 110 110" fill="none" xmlns="http://www.w3.org/2000/svg">
<path d="M55.5098 65.5801C54.9327 65.5801 54.3716 65.3717 53.9334 64.9923L42.4504 55.3902H11.1006C8.29531 55.3902 6.01367 53.1085 6.01367 50.3032V13.1451C6.01367 10.3451 8.29531 8.06885 11.1006 8.06885H99.4113C102.217 8.06885 104.498 10.3451 104.498 13.1451V50.3032C104.498 53.1085 102.211 55.3902 99.3953 55.3902H57.9197V63.1595C57.9197 63.8221 57.6472 64.4633 57.1662 64.9121C56.7227 65.345 56.1296 65.5801 55.5098 65.5801ZM11.106 12.1459C10.5502 12.1459 10.096 12.5947 10.096 13.1451V50.3032C10.096 50.859 10.5502 51.3131 11.106 51.3131H43.1932C43.6741 51.3131 44.1336 51.4841 44.5023 51.7887L53.848 59.6008V53.3543C53.848 52.2269 54.7617 51.3131 55.8892 51.3131H99.406C99.967 51.3131 100.427 50.859 100.427 50.3032V13.1451C100.427 12.5947 99.9724 12.1459 99.4167 12.1459H11.106Z" fill="#090909"/>
<path d="M70.9531 27.0594H34.34C33.2126 27.0594 32.2988 26.1457 32.2988 25.0182C32.2988 23.8908 33.2126 22.9771 34.34 22.9771H70.9531C72.0806 22.9771 72.9943 23.8908 72.9943 25.0182C72.9943 26.1457 72.0806 27.0594 70.9531 27.0594Z" fill="#090909"/>
<path d="M70.9531 33.8241H34.34C33.2126 33.8241 32.2988 32.9103 32.2988 31.7829C32.2988 30.6554 33.2126 29.7417 34.34 29.7417H70.9531C72.0806 29.7417 72.9943 30.6554 72.9943 31.7829C72.9943 32.9103 72.0806 33.8241 70.9531 33.8241Z" fill="#090909"/>
<path d="M70.9528 40.5892H53.9767C52.8493 40.5892 51.9355 39.6755 51.9355 38.548C51.9355 37.4206 52.8493 36.5068 53.9767 36.5068H70.9528C72.0802 36.5068 72.994 37.4206 72.994 38.548C72.994 39.6755 72.0802 40.5892 70.9528 40.5892Z" fill="#090909"/>
<path d="M79.0049 78.4043C75.2325 78.4043 71.8448 76.3151 70.1616 72.9487C69.4669 71.5541 69.1143 70.0579 69.1143 68.503C69.1143 63.0473 73.5493 58.6123 79.0049 58.6123C84.4659 58.6123 88.9063 63.0527 88.9063 68.503C88.9063 70.0579 88.5536 71.5541 87.859 72.9487C86.1598 76.3151 82.7721 78.4043 79.0049 78.4043ZM79.0049 62.6947C75.7989 62.6947 73.1913 65.3023 73.1913 68.5083C73.1913 69.4274 73.3997 70.3091 73.8111 71.1266C74.7996 73.0983 76.7874 74.3273 79.0049 74.3273C81.2171 74.3273 83.2156 73.0983 84.2094 71.1213C84.6155 70.3037 84.8239 69.422 84.8239 68.5083C84.8293 65.3023 82.2163 62.6947 79.0049 62.6947Z" fill="#090909"/>
<path d="M95.8528 101.595C94.7253 101.595 93.8116 100.681 93.8116 99.5533C93.8116 88.7383 90.0552 84.9979 86.3843 82.7643C81.3668 79.7186 76.6966 79.7132 71.6845 82.7643C68.0082 84.9979 64.2572 88.7383 64.2572 99.5533C64.2572 100.681 63.3434 101.595 62.216 101.595C61.0885 101.595 60.1748 100.681 60.1748 99.5533C60.1748 89.4757 63.0709 83.2239 69.5632 79.2751C75.847 75.4545 82.2217 75.4545 88.5056 79.2751C94.9978 83.2239 97.894 89.4757 97.894 99.5533C97.894 100.675 96.9803 101.595 95.8528 101.595Z" fill="#090909"/>
<path d="M33.1523 78.4043C29.3906 78.4043 25.9975 76.3151 24.3036 72.954C23.6037 71.5541 23.251 70.0579 23.251 68.503C23.251 63.0473 27.6914 58.6123 33.1523 58.6123C38.608 58.6123 43.043 63.0527 43.043 68.503C43.043 70.0579 42.6903 71.5541 41.9957 72.9487C40.3125 76.3151 36.9248 78.4043 33.1523 78.4043ZM33.1523 62.6947C29.941 62.6947 27.3334 65.3023 27.3334 68.5083C27.3334 69.4274 27.5417 70.309 27.9532 71.1266C28.9471 73.0983 30.9402 74.3273 33.1577 74.3273C35.3752 74.3273 37.363 73.1037 38.3515 71.1266C38.7629 70.3037 38.9713 69.422 38.9713 68.5083C38.966 65.3023 36.3584 62.6947 33.1523 62.6947Z" fill="#090909"/>
<path d="M49.9475 101.595C48.8201 101.595 47.9064 100.681 47.9064 99.5534C47.9064 88.7383 44.1499 84.9979 40.479 82.7643C35.4615 79.7186 30.7914 79.7132 25.7793 82.7643C22.103 84.9979 18.3519 88.7436 18.3519 99.5534C18.3519 100.681 17.4382 101.595 16.3107 101.595C15.1833 101.595 14.2695 100.681 14.2695 99.5534C14.2695 89.481 17.1657 83.2239 23.6579 79.2751C29.9418 75.4545 36.3111 75.4545 42.6003 79.2751C49.0926 83.2239 51.9887 89.4757 51.9887 99.5534C51.9887 100.675 51.075 101.595 49.9475 101.595Z" fill="#090909"/>
</svg>
